<svg
  width="206"
  height="58"
  viewBox="0 0 206 58"
  xmlns="http://www.w3.org/2000/svg"
>
  <path
    fill="#fbfbfb"
    fill-rule="evenodd"
    clip-rule="evenodd"
    d="M3.922 12.835c-1.264 0-2.292 1.107-2.292 2.468v27.73c0 1.362 1.028 2.469 2.292 2.469h77.1l6.657-12.703h-8.316l13.65-27.023-11.223 7.059H3.922zm78.165 34.407H3.921c-2.156 0-3.91-1.888-3.91-4.208V15.303c0-2.32 1.754-4.208 3.91-4.208h77.36L97.411.949 82.204 31.06h8.363l-8.48 16.183zM135.114 28.717c0 2.79-2.268 5.042-5.078 5.042-2.81 0-5.078-2.253-5.078-5.042 0-2.79 2.268-5.042 5.078-5.042 2.81 0 5.078 2.252 5.078 5.042"
  />
  <path
    fill="#fbfbfb"
    fill-rule="evenodd"
    clip-rule="evenodd"
    d="M146.049 23.857h-2.721v2.884h2.721c1.727 0 2.722-.45 2.722-1.445 0-1.17-.995-1.439-2.722-1.439zm.366 5.405h-3.087v3.966h3.087c1.883 0 3.087-.607 3.087-1.983 0-1.351-1.204-1.983-3.087-1.983zm14.679-4.323l-2.111 5.405h4.215l-2.104-5.405zm0 0l-2.111 5.405h4.215l-2.104-5.405zm-14.679 4.323h-3.087v3.966h3.087c1.883 0 3.087-.607 3.087-1.983 0-1.351-1.204-1.983-3.087-1.983zm-.366-5.405h-2.721v2.884h2.721c1.727 0 2.722-.45 2.722-1.445 0-1.17-.995-1.439-2.722-1.439zm2.722 1.44c0-1.17-.995-1.44-2.722-1.44h-2.721v2.884h2.721c1.727 0 2.722-.45 2.722-1.445zm-2.356 3.965h-3.087v3.966h3.087c1.883 0 3.087-.607 3.087-1.983 0-1.351-1.204-1.983-3.087-1.983zm12.568 1.082h4.215l-2.104-5.405-2.111 5.405zm31.644-6.487h-3.994v12.249h-2.905V23.857h-3.987v-2.883h10.886v2.883zm-11.05 12.249h-9.072V20.974h2.904v12.254h6.168v2.878zm-14.13 0l-1.135-2.878h-6.438l-1.14 2.878h-3.263l6.306-15.132h2.627l6.306 15.132h-3.263zm-18.264 0h-6.753V20.974h5.443c3.49 0 5.802 1.175 5.802 3.965 0 1.508-.812 2.59-1.833 3.04 1.877.476 2.558 2.002 2.558 3.579 0 2.615-1.947 4.548-5.217 4.548zm-17.078.363c-4.398 0-7.982-3.56-7.982-7.926 0-4.372 3.584-7.926 7.982-7.926 4.397 0 7.981 3.553 7.981 7.926 0 4.366-3.584 7.926-7.981 7.926zm-14.496-2.884c1.499 0 2.835-.582 3.786-1.552l1.115 2.609c-1.298 1.176-3.245 1.827-4.946 1.827-4.466 0-8.12-3.56-8.12-7.926 0-4.372 3.654-7.926 8.12-7.926 1.701 0 3.648.632 4.946 1.801l-1.115 2.61a5.427 5.427 0 0 0-3.786-1.527c-2.905 0-5.261 2.252-5.261 5.042s2.356 5.042 5.261 5.042zm85.955-13.975h-1.342v-4.604c0-2.321-1.752-4.21-3.906-4.21l-97.351-.02L90.97 26.98h8.826L84.134 57.33l16.815-10.39h95.367c2.154 0 3.906-1.884 3.906-4.205v-4.61h1.342c2.154 0 3.912-1.889 3.912-4.21V23.82c0-2.321-1.758-4.21-3.912-4.21zm-52.793 5.686c0-1.17-.995-1.439-2.722-1.439h-2.721v2.884h2.721c1.727 0 2.722-.45 2.722-1.445zm-2.356 3.966h-3.087v3.966h3.087c1.883 0 3.087-.607 3.087-1.983 0-1.351-1.204-1.983-3.087-1.983zm14.679-4.323l-2.111 5.405h4.215l-2.104-5.405zm0 0l-2.111 5.405h4.215l-2.104-5.405zm-14.679 4.323h-3.087v3.966h3.087c1.883 0 3.087-.607 3.087-1.983 0-1.351-1.204-1.983-3.087-1.983zm-.366-5.405h-2.721v2.884h2.721c1.727 0 2.722-.45 2.722-1.445 0-1.17-.995-1.439-2.722-1.439zm0 0h-2.721v2.884h2.721c1.727 0 2.722-.45 2.722-1.445 0-1.17-.995-1.439-2.722-1.439zm.366 5.405h-3.087v3.966h3.087c1.883 0 3.087-.607 3.087-1.983 0-1.351-1.204-1.983-3.087-1.983zm0 0h-3.087v3.966h3.087c1.883 0 3.087-.607 3.087-1.983 0-1.351-1.204-1.983-3.087-1.983zm-.366-5.405h-2.721v2.884h2.721c1.727 0 2.722-.45 2.722-1.445 0-1.17-.995-1.439-2.722-1.439zM15.476 36.35V21.219h9.435v2.883h-6.532v3.242h5.443v2.883H18.38v6.125h-2.903M27.229 36.35h2.902V21.219H27.23v15.133zM36.317 28.424h2.903c1.406 0 2.54-.9 2.54-2.162 0-1.418-1.134-2.162-2.54-2.162h-2.903v4.324zm5.17 7.927l-3.424-5.045h-1.746v5.045h-2.903V21.218h5.443c3.969 0 5.806 2.117 5.806 5.044 0 2.116-1.248 4.144-3.493 4.819l3.855 5.27h-3.538zM58.74 31.593c0 2.702-2.086 4.864-6.123 4.864-3.9 0-5.942-2.252-6.214-2.523l1.452-2.52c1.337 1.508 3.356 2.16 4.807 2.16 2.019 0 3.175-.742 3.175-1.801 0-1.058-1.088-1.598-3.084-1.892-4.332-.652-5.805-2.251-5.805-4.548 0-2.522 2.063-4.73 5.85-4.73.68 0 2.994.046 5.217 1.848l-1.225 2.476c-.34-.292-1.837-1.44-4.037-1.44-1.542 0-2.903.427-2.903 1.643 0 1.036.885 1.419 3.084 1.78 3.334.54 5.806 1.44 5.806 4.683M70.897 21.218v2.883h-3.991v12.25h-2.903V24.1H60.01v-2.883h10.886"
  />
</svg>
