<svg
  width="1920"
  height="1080"
  viewBox="0 0 1920 1080"
  xmlns="http://www.w3.org/2000/svg"
>
  <g fill="#b3b6dd" fill-rule="evenodd" clip-rule="evenodd" opacity="0.35">
    <path
      d="M982.1 812.2l166.6-134.7c-32.4-18-81.4-10.5-120.7 21.3-39.4 31.8-56.8 78.1-45.9 113.4zM866.2 600c38.4-82.8 112.2-165.2 112.2-165.2 162.7-194.6 387.7-335.5 644.4-392.4 1.1-.2 2.6-.6 3.7-.8.4-.8.7-1.6.7-1.6l58.5-153.8 223-150c-22.6 83.2-19.6 166 33.4 244.5 7 10.4 18.3 25.5 28.6 37.6 486 38.1 888.4 372.5 1026.2 822.1 7 26.1 11.7 44.3 11.7 62.6h-171.1l-464.4-445.6-468 204.6-207.5-116.2-417.7 343.9-133.5-96.7L883 992.4s-.6.2-1.5.3c-9.8 7.5-19.2 12.7-26.9 13.2-2.1.1-20.2-7-29.2-28-11.9-27.6-15.2-73.5-16.2-100.2-5.3-135.3 57-277.7 57-277.7z"
    />
    <path
      d="M1445.3 1002l-118.2-92.3 303-243.4c-.5 2.6-3.6 9.6-5.2 15.7-8.9 28.6-13.2 58.6-13.2 90 0 40.3 7.9 78.8 22.3 114.2 14.5 42.4 42.9 83.8 79.5 115.9h-268.2"
    />
  </g>
</svg>
