<svg
  width="488"
  height="166"
  viewBox="0 0 488 166"
  xmlns="http://www.w3.org/2000/svg"
>
  <path
    fill="#fcdcdc"
    fill-rule="evenodd"
    clip-rule="evenodd"
    d="M437.576 90.441c-1.766 2.075-3.629 4.15-5.802 5.81-.857.652-3.127.718-3.98.097-2.183-1.585-4.428-3.44-5.768-5.662-4.121-6.842-7.789-13.93-11.722-20.876-1.086-1.916-2.479-3.673-4.113-6.058-6.08 7.57-11.755 14.677-17.483 21.747-2.42 2.986-4.726 6.1-7.489 8.782-4.58 4.443-8.271 4.271-12.387-.627-4.348-5.172-8.215-10.704-12.501-15.927-3.12-3.804-6.577-7.362-10.8-12.046-5.058 7.334-9.351 13.603-13.698 19.838-2.641 3.784-5.298 7.56-8.082 11.252-1.865 2.473-4.619 2.978-6.967 1.063-4.338-3.535-8.655-7.194-12.351-11.307-5.066-5.639-9.52-11.764-14.286-17.643-1.935-2.387-3.669-2.709-6.584-.55-7.195 5.335-15.017 9.911-22.219 15.236-4.016 2.969-7.524 6.64-10.859 10.322-6.668 7.362-10.694 4.597-15.331-1.383-5.407-6.976-10.214-14.366-15.28-21.578-2.627-3.737-5.658-4.58-9.467-1.366-9.647 8.14-19.579 15.993-28.928 24.426-5.267 4.754-9.93 5.042-15.415-1.28-7.184-8.281-13.828-16.98-20.763-25.458-1.607-1.965-3.446-3.758-5.535-6.017-2.321 2.434-4.33 4.466-6.253 6.568-7.504 8.198-14.959 16.437-22.475 24.626-5.565 6.06-10.89 6.216-16.107-.067-6.695-8.067-12.96-16.453-19.349-24.743-3.94-5.115-4.766-5.433-9.223-.628-6.908 7.449-13.385 15.254-20.029 22.924-.524.607-.811 1.41-1.38 1.966-6.623 6.488-8.408 6.808-14.21.076-5.541-6.43-9.794-13.88-14.374-21.017C9.665 60.5 9.757 60.448 1.886 69.905c-.37.445-.775.867-1.87 2.085 0-3.587-.04-6.206.008-8.825.124-6.654 6.348-10.284 11.913-6.233 4.324 3.145 7.638 7.738 10.768 12.094C26.959 74.95 30.61 81.258 35.028 88.2c3.242-3.359 5.554-5.783 7.9-8.178 6.65-6.783 12.838-14.059 20.105-20.187 7.129-6.011 11.035-5.004 16.846 2.47C85.42 69.428 90.766 76.686 96.4 83.74c3.932 4.928 4.79 5.024 9.156.625 8.218-8.276 16.243-16.727 24.249-25.19 6.926-7.32 14.084-6.863 20.269 1.292 5.737 7.566 11.701 14.976 17.436 22.546 2.704 3.57 4.917 4.083 8.711.804 6.954-6.005 14.365-11.565 21.849-16.984 3.676-2.66 7.811-4.844 11.976-6.792 5.625-2.628 11.451-1.217 15.026 3.647 4.639 6.311 9.003 12.805 13.355 19.298 1.844 2.752 3.343 3.102 6.229.863 7.657-5.943 15.446-11.775 23.568-17.127 4.153-2.735 8.983-5.538 13.789-6.078 3.626-.408 8.484 1.92 11.409 4.457 5.829 5.055 10.755 11.05 15.945 16.745 1.821 1.998 3.327 4.251 5.441 6.99 4.349-5.314 8.368-10.265 12.433-15.183 2.552-3.087 5.163-6.13 7.761-9.184 5.381-6.326 11.056-6.228 18.013-.088 4.926 4.352 8.563 10.02 12.731 15.132 2.018 2.476 3.939 5.021 6.497 8.295 6.179-6.495 11.976-12.509 17.675-18.606 2.906-3.108 5.573-6.416 8.468-9.535 4.238-4.568 9.07-4.825 13.034-.007 3.136 3.81 5.308 8.343 7.77 12.626 2.618 4.56 5.071 9.203 8.04 14.62 8.525-8.986 16.648-17.545 24.77-26.105v12.35c-4.801 5.768-9.556 11.572-14.424 17.289zM472.427 36.441c-1.906 2.075-3.918 4.15-6.264 5.81-.925.652-3.376.718-4.297.097-2.357-1.585-4.78-3.44-6.227-5.662-4.45-6.842-8.409-13.93-12.656-20.876-1.172-1.916-2.677-3.673-4.441-6.058-6.564 7.57-12.691 14.677-18.875 21.747-2.613 2.986-5.102 6.1-8.086 8.782-4.944 4.443-8.929 4.271-13.374-.627-4.693-5.172-8.868-10.704-13.495-15.927-3.369-3.804-7.102-7.362-11.661-12.046-5.461 7.334-10.095 13.603-14.789 19.838-2.851 3.784-5.72 7.56-8.726 11.252-2.013 2.473-4.986 2.978-7.521 1.063-4.684-3.536-9.345-7.194-13.335-11.307-5.47-5.639-10.278-11.764-15.424-17.643-2.089-2.387-3.962-2.709-7.108-.55-7.769 5.335-16.214 9.911-23.989 15.236-4.336 2.969-8.123 6.64-11.724 10.322-7.199 7.362-11.545 4.596-16.552-1.384-5.837-6.975-11.027-14.365-16.497-21.577-2.836-3.738-6.108-4.58-10.22-1.366-10.416 8.14-21.14 15.993-31.233 24.426-5.687 4.754-10.721 5.042-16.642-1.28-7.757-8.281-14.93-16.98-22.417-25.458-1.735-1.965-3.721-3.758-5.976-6.017-2.506 2.434-4.675 4.466-6.751 6.567-8.102 8.2-16.151 16.438-24.265 24.627-6.008 6.06-11.758 6.216-17.39-.067C95.264 30.296 88.5 21.91 81.602 13.62c-4.254-5.115-5.146-5.433-9.958-.628-7.459 7.449-14.451 15.255-21.624 22.924-.566.607-.876 1.41-1.489 1.966-7.152 6.488-9.078 6.808-15.343.076-5.983-6.43-10.574-13.88-15.519-21.017C10.434 6.5 10.534 6.448 2.037 15.905c-.4.445-.837.867-2.02 2.086 0-3.588-.044-6.207.009-8.826C.16 2.512 6.88-1.119 12.888 2.932c4.668 3.145 8.246 7.738 11.625 12.095 4.594 5.922 8.535 12.231 13.304 19.173 3.501-3.359 5.997-5.783 8.53-8.178 7.18-6.783 13.86-14.059 21.707-20.187C75.75-.176 79.967.83 86.24 8.305c5.982 7.124 11.754 14.382 17.837 21.436 4.245 4.928 5.172 5.024 9.885.625 8.872-8.276 17.537-16.727 26.18-25.19 7.478-7.32 15.206-6.863 21.883 1.292 6.195 7.566 12.634 14.976 18.825 22.546 2.92 3.57 5.309 4.083 9.406.804 7.507-6.005 15.508-11.565 23.589-16.984 3.968-2.66 8.433-4.844 12.93-6.792 6.073-2.628 12.362-1.217 16.222 3.647 5.009 6.311 9.721 12.805 14.419 19.298 1.991 2.752 3.609 3.102 6.725.863 8.267-5.943 16.676-11.775 25.445-17.127 4.483-2.735 9.699-5.538 14.887-6.078 3.916-.408 9.16 1.92 12.318 4.457 6.293 5.055 11.612 11.05 17.215 16.745 1.966 1.998 3.592 4.251 5.874 6.99 4.696-5.314 9.035-10.265 13.423-15.183 2.756-3.087 5.575-6.13 8.379-9.184 5.81-6.326 11.937-6.228 19.448-.088 5.319 4.352 9.245 10.02 13.745 15.132 2.179 2.476 4.253 5.021 7.015 8.295 6.671-6.495 12.93-12.509 19.082-18.606 3.138-3.108 6.017-6.416 9.143-9.535 4.575-4.568 9.792-4.825 14.072-.007 3.386 3.81 5.731 8.343 8.389 12.626 2.826 4.56 5.475 9.203 8.68 14.62L488 6.802v12.35c-5.183 5.768-10.317 11.572-15.573 17.289zM383.363 157.441c-1.547 2.075-3.179 4.15-5.083 5.809-.751.653-2.739.719-3.487.098-1.913-1.585-3.879-3.44-5.053-5.662-3.611-6.842-6.824-13.93-10.27-20.876-.951-1.916-2.172-3.673-3.604-6.058-5.326 7.569-10.298 14.677-15.317 21.746-2.12 2.987-4.14 6.101-6.561 8.783-4.012 4.443-7.246 4.271-10.852-.627-3.809-5.172-7.197-10.704-10.952-15.927-2.733-3.804-5.762-7.362-9.462-12.046-4.432 7.334-8.192 13.603-12.001 19.838-2.314 3.784-4.642 7.561-7.081 11.252-1.633 2.473-4.047 2.978-6.103 1.063-3.801-3.536-7.583-7.194-10.821-11.307-4.439-5.639-8.341-11.764-12.517-17.643-1.695-2.387-3.214-2.709-5.768-.549-6.304 5.334-13.156 9.91-19.466 15.235-3.519 2.969-6.592 6.641-9.513 10.322-5.843 7.362-9.369 4.596-13.432-1.384-4.737-6.975-8.949-14.365-13.387-21.577-2.302-3.738-4.957-4.579-8.294-1.366-8.452 8.14-17.154 15.993-25.344 24.426-4.615 4.754-8.7 5.042-13.505-1.281-6.295-8.28-12.115-16.979-18.191-25.457-1.408-1.965-3.019-3.758-4.849-6.017-2.034 2.434-3.794 4.466-5.478 6.568-6.575 8.198-13.106 16.437-19.69 24.626-4.876 6.06-9.542 6.216-14.112-.067-5.866-8.067-11.354-16.453-16.952-24.744-3.452-5.114-4.176-5.432-8.08-.627-6.053 7.449-11.727 15.255-17.548 22.924-.459.607-.71 1.41-1.208 1.966-5.804 6.488-7.367 6.808-12.45.076-4.855-6.43-8.582-13.879-12.594-21.017-5.87-10.441-5.79-10.493-12.685-1.036-.325.445-.68.867-1.639 2.086 0-3.588-.036-6.208.007-8.826.109-6.654 5.562-10.284 10.437-6.233 3.788 3.145 6.692 7.738 9.434 12.095 3.727 5.922 6.925 12.231 10.796 19.173 2.84-3.359 4.866-5.783 6.921-8.178 5.826-6.783 11.248-14.059 17.615-20.187 6.245-6.011 9.667-5.004 14.759 2.469 4.853 7.125 9.538 14.383 14.474 21.437 3.444 4.928 4.196 5.024 8.022.625 7.199-8.276 14.23-16.727 21.244-25.19 6.068-7.321 12.339-6.863 17.757 1.292 5.027 7.566 10.252 14.976 15.276 22.546 2.369 3.569 4.308 4.083 7.633.804 6.092-6.005 12.585-11.565 19.142-16.984 3.22-2.661 6.843-4.844 10.492-6.792 4.928-2.628 10.032-1.217 13.164 3.647 4.064 6.311 7.888 12.805 11.701 19.298 1.615 2.752 2.928 3.102 5.457.863 6.708-5.943 13.532-11.775 20.648-17.127 3.638-2.735 7.87-5.538 12.08-6.078 3.178-.408 7.433 1.921 9.996 4.457 5.107 5.055 9.423 11.05 13.969 16.745 1.595 1.998 2.915 4.251 4.767 6.99 3.81-5.314 7.332-10.265 10.893-15.183 2.236-3.087 4.523-6.13 6.799-9.184 4.715-6.326 9.687-6.228 15.782-.088 4.316 4.352 7.502 10.02 11.153 15.132 1.769 2.476 3.452 5.021 5.693 8.295 5.413-6.495 10.492-12.509 15.484-18.606 2.547-3.108 4.883-6.416 7.42-9.535 3.712-4.568 7.946-4.825 11.419-.007 2.747 3.81 4.65 8.343 6.807 12.626 2.294 4.56 4.443 9.203 7.044 14.62L396 127.802v12.349c-4.206 5.769-8.372 11.573-12.637 17.29z"
  />
</svg>
