<svg
  width="85"
  height="6"
  viewBox="0 0 85 6"
  xmlns="http://www.w3.org/2000/svg"
>
  <path
    fill="#f32735"
    fill-rule="evenodd"
    clip-rule="evenodd"
    d="M82.082 4.859c-.331.276-.68.553-1.089.774-.16.087-.586.096-.746.013-.41-.21-.83-.458-1.082-.755-.773-.912-1.461-1.857-2.199-2.783-.204-.255-.465-.49-.771-.808-1.141 1.01-2.205 1.957-3.28 2.9-.454.398-.887.813-1.405 1.17-.859.593-1.551.57-2.324-.083-.815-.69-1.54-1.427-2.344-2.123-.586-.508-1.234-.982-2.026-1.607-.95.978-1.754 1.814-2.57 2.646a55.144 55.144 0 0 1-1.516 1.5c-.35.33-.866.397-1.307.142-.813-.472-1.623-.96-2.317-1.508-.95-.752-1.785-1.569-2.68-2.352-.362-.319-.688-.362-1.234-.074-1.35.712-2.817 1.322-4.168 2.032-.754.396-1.412.885-2.037 1.376-1.251.981-2.006.613-2.876-.185-1.014-.93-1.916-1.915-2.866-2.877-.493-.498-1.062-.61-1.776-.182-1.81 1.086-3.673 2.133-5.427 3.257-.988.634-1.862.672-2.891-.17-1.348-1.105-2.594-2.265-3.895-3.395-.301-.262-.646-.501-1.038-.802-.436.324-.813.595-1.173.875-1.408 1.094-2.806 2.192-4.216 3.284-1.044.808-2.043.829-3.021-.009-1.256-1.075-2.432-2.194-3.63-3.3-.74-.681-.894-.723-1.73-.083-1.296.993-2.511 2.034-3.757 3.057-.099.08-.152.188-.259.262-1.243.865-1.577.908-2.666.01-1.04-.857-1.837-1.85-2.696-2.802C1.813.867 1.83.859.354 2.12c-.07.06-.146.115-.351.278 0-.479-.008-.828.001-1.177C.028.335 1.195-.149 2.24.391c.811.42 1.433 1.032 2.02 1.613.798.79 1.483 1.63 2.312 2.556.608-.448 1.041-.771 1.482-1.09C9.3 2.565 10.46 1.595 11.824.778c1.337-.802 2.07-.667 3.16.33 1.04.95 2.042 1.917 3.1 2.857.736.658.898.67 1.716.084A243.862 243.862 0 0 0 24.35.69c1.298-.976 2.641-.915 3.801.172 1.076 1.01 2.195 1.997 3.27 3.007.508.475.923.544 1.635.107 1.305-.8 2.695-1.542 4.099-2.265.69-.355 1.465-.646 2.246-.905 1.055-.35 2.148-.163 2.819.486.87.841 1.689 1.707 2.505 2.573.346.367.627.414 1.168.115 1.437-.792 2.898-1.57 4.421-2.284.78-.364 1.685-.738 2.587-.81.68-.054 1.591.256 2.14.594 1.093.674 2.017 1.474 2.991 2.233.342.266.624.567 1.02.932.816-.709 1.57-1.369 2.333-2.024.479-.412.968-.818 1.456-1.225 1.01-.843 2.074-.83 3.379-.012.924.58 1.606 1.336 2.388 2.018.378.33.739.67 1.218 1.106 1.16-.866 2.247-1.668 3.316-2.48.545-.415 1.045-.856 1.589-1.272.794-.61 1.7-.644 2.444-.001.589.508.996 1.112 1.458 1.683.491.608.951 1.227 1.508 1.95L84.787.907v1.646c-.9.77-1.792 1.543-2.705 2.306z"
  />
</svg>
