<svg width="150" height="230" viewBox="0 0 150 230" xmlns="http://www.w3.org/2000/svg"><path fill="#faa9ae" fill-rule="evenodd" clip-rule="evenodd" d="M42.694 100.589C57.821 98.253 69 88.919 69 72.616c0-20.256-17.114-24.536-30.843-27.97l-.192-.048-.454-.113c-9.252-2.304-16.82-4.189-16.82-10.496 0-5.556 6.382-8.082 12.74-8.082 7.282 0 13.639 3.6 13.639 11.195h19.28c0-15.565-8.848-25.894-24.654-28.37V0H26.185v8.688C10.763 10.922 1.277 20.124 1.277 34.855c0 19.529 16.433 23.524 30.009 26.825l.138.034.394.095c9.55 2.289 17.417 4.175 17.417 11.052 0 6.361-7.185 10.072-14.516 10.072-7.853 0-15.062-4.03-15.062-12.452H0c0 16.714 10.696 27.64 27.255 30.142V110h15.44v-9.411zm81 0C138.821 98.253 150 88.919 150 72.616c0-20.256-17.114-24.536-30.843-27.97l-.192-.048-.453-.113c-9.252-2.304-16.821-4.189-16.821-10.496 0-5.556 6.382-8.082 12.739-8.082 7.283 0 13.64 3.6 13.64 11.195h19.281c0-15.565-8.848-25.894-24.654-28.37V0h-15.512v8.688c-15.422 2.234-24.908 11.436-24.908 26.167 0 19.529 16.433 23.524 30.009 26.825l.138.034.394.095c9.549 2.289 17.417 4.175 17.417 11.052 0 6.361-7.185 10.072-14.516 10.072-7.853 0-15.062-4.03-15.062-12.452H81c0 16.714 10.696 27.64 27.255 30.142V110h15.439v-9.411zM69 192.616c0 16.302-11.18 25.637-26.306 27.973V230H27.255v-9.376C10.696 218.12 0 207.195 0 190.481h19.657c0 8.423 7.209 12.452 15.062 12.452 7.33 0 14.516-3.711 14.516-10.072 0-6.877-7.868-8.763-17.417-11.053l-.394-.094-.138-.034c-13.576-3.301-30.009-7.297-30.009-26.825 0-14.731 9.486-23.933 24.908-26.167V120h15.512v8.732c15.806 2.476 24.654 12.805 24.654 28.37H47.07c0-7.595-6.357-11.195-13.64-11.195-6.357 0-12.74 2.526-12.74 8.082 0 6.307 7.57 8.192 16.821 10.496l.454.113.192.048C51.887 168.08 69 172.36 69 192.616zm54.694 27.973C138.821 218.253 150 208.918 150 192.616c0-20.256-17.114-24.536-30.843-27.97l-.192-.048-.454-.113c-9.252-2.304-16.82-4.189-16.82-10.496 0-5.556 6.382-8.082 12.739-8.082 7.283 0 13.64 3.6 13.64 11.195h19.281c0-15.565-8.848-25.894-24.654-28.37V120h-15.512v8.688c-15.422 2.234-24.908 11.436-24.908 26.167 0 19.528 16.433 23.524 30.009 26.825l.138.034.394.094c9.549 2.29 17.417 4.176 17.417 11.053 0 6.361-7.185 10.072-14.516 10.072-7.853 0-15.062-4.029-15.062-12.452H81c0 16.714 10.696 27.639 27.255 30.143V230h15.439v-9.411z"/></svg>