<svg xmlns="http://www.w3.org/2000/svg" width="174" height="810"><defs><clipPath id="a"><path clip-rule="evenodd" d="M167.031.165h6.028v496.732h-6.028z"/></clipPath></defs><g clip-path="url(#a)"><path fill="#fbfbfb" d="M171.56.164c.341 10.787.709 21.57 1.003 32.356.069 2.601-.098 5.21-.183 7.815-.325 10.06-.702 20.118-.984 30.18-.6 21.207-1.341 42.414-1.649 63.627-.182 12.491.39 24.99.55 37.49.163 12.764.076 25.533.397 38.291.367 14.648 1.131 29.284 1.584 43.93.167 5.481-.168 10.974-.083 16.46.21 13.66.818 27.32.742 40.978-.134 23.824-.704 47.645-.991 71.471-.08 6.645.32 13.296.256 19.942-.112 11.69-.61 23.377-.586 35.061.038 16.73.372 33.46.66 50.184.05 2.936.503 5.866.783 8.948-1.715-.169-3.007-.24-3.076-2.324-.336-10.245-1.02-20.487-1.084-30.734-.078-12.186.412-24.375.537-36.566.1-9.695-.032-19.396.04-29.093.118-15.92.347-31.839.472-47.758.062-7.646-.076-15.296.024-22.94.027-1.973.63-3.933.931-5.906.094-.619.096-1.258.08-1.886-.118-5.184-.262-10.368-.374-15.552-.211-9.797-.454-19.592-.594-29.39-.094-6.607.02-13.22-.07-19.826-.035-2.752-.405-5.499-.545-8.25-.377-7.44-.909-14.876-1.014-22.32-.147-10.422.092-20.849.063-31.273-.016-5.302-.287-10.603-.385-15.904-.179-9.612-.308-19.225-.466-28.837a611.734 611.734 0 00-.176-8.089c-.283-9.51-.773-18.966.12-28.535.991-10.625.481-21.387.802-32.084.417-13.928 1.316-27.85 1.423-41.775.078-10.231-.826-20.469-1.202-30.707-.085-2.32.205-4.655.323-6.984h2.672z"/></g><defs><clipPath id="b"><path clip-rule="evenodd" d="M147.911.165h9.259V465.82h-9.259z"/></clipPath></defs><g clip-path="url(#b)"><path fill="#fbfbfb" d="M150.661.164c2.07 18.342 2.273 36.772 2.665 55.193.17 7.902.86 15.791 1.222 23.687.204 4.395.146 8.8.346 13.193.192 4.206.62 8.401.838 12.605.092 1.768-.176 3.552-.119 5.325.124 3.945.433 7.89.518 11.836.165 7.601.59 15.22.255 22.805-.621 14.087-2.081 28.146-2.485 42.238-.288 10.116.722 20.264.885 30.4.298 18.587.438 37.18.564 55.77.144 21.215.128 42.432.332 63.65.09 9.248.628 18.491.827 27.743.117 5.352-.117 10.708-.027 16.062.041 2.487.779 4.978.678 7.447-.41 10.056-1.302 20.093-1.496 30.148-.289 14.835-.133 29.677-.179 44.514-.005 2.094-.046 2.094-2.654 3.04-.151-3.942-.502-7.75-.41-11.552.568-23.093 1.423-46.179 1.794-69.276.184-11.405-.552-22.82-.72-34.237-.391-26.789-.705-53.58-1.019-80.368-.087-7.455.011-14.908-.094-22.36-.183-12.833-.401-25.666-.72-38.495-.18-7.356-1.001-14.72-.783-22.058.256-8.6 1.636-17.159 1.977-25.759.518-12.923.67-25.864.754-38.8.046-7.183-.24-14.377-.589-21.557-.699-14.446-1.675-28.883-2.287-43.331-.456-10.777-.337-21.58-.827-32.354-.387-8.514-1.31-17.006-1.996-25.509h2.75z"/></g><defs><clipPath id="c"><path clip-rule="evenodd" d="M134.59.164h5.842v442.217h-5.842z"/></clipPath></defs><g clip-path="url(#c)"><path fill="#fbfbfb" d="M139.246.163c.332 11.311 1.04 22.624.907 33.93-.185 15.79-1.063 31.57-1.523 47.36-.284 9.786-.416 19.58-.482 29.37-.112 17.152-.204 34.305-.151 51.458.05 16.793.15 33.591.49 50.38.266 13.104.999 26.194 1.395 39.296.222 7.446.176 14.901.262 22.354.094 8.343.336 16.683.28 25.021-.188 27.028-.527 54.05-.72 81.075-.1 14.097.02 28.196-.038 42.294-.02 5.206-.385 10.412-.338 15.615.017 2.074-.913 2.99-2.909 4.065 0-1.777-.037-3.168.007-4.559.26-8.158.72-16.317.783-24.478.235-30.8.312-61.6.515-92.403.066-10.318.504-20.636.438-30.953-.042-6.81-.786-13.614-1.001-20.43-.126-3.924.327-7.863.248-11.79-.099-4.8-.517-9.595-.737-14.397-.209-4.552-.46-9.106-.486-13.66-.088-15.439.02-30.88-.15-46.318-.103-9.417-.64-18.829-.862-28.244-.268-11.486-.737-22.979-.535-34.458.348-19.744 1.103-39.48 1.778-59.214.286-8.343 1.135-16.68 1.12-25.015-.016-8.785-.827-17.566-1.153-26.354-.123-3.307.136-6.628.222-9.945h2.64z"/></g><defs><clipPath id="d"><path clip-rule="evenodd" d="M13.675.163h6.666v333.299h-6.666z"/></clipPath></defs><g clip-path="url(#d)"><path fill="#fbfbfb" d="M20.342.162c-.14 8.793-.305 17.583-.414 26.376-.254 20.395-.375 40.792-.771 61.183-.154 7.891-1.258 15.767-1.296 23.652-.067 13.74.352 27.48.579 41.22.256 15.62 1.519 31.297.554 46.837-1.414 22.812-.973 45.605-1.49 68.403-.2 8.792-1.102 17.57-1.205 26.358-.109 9.336.381 18.678.528 28.016.02 1.25-.434 2.504-.746 4.165 1.178 1.203 1.43 2.785-.499 4.165.488.816.956 1.594 1.421 2.374-.316.184-.635.366-.95.55-.513-1.052-1.446-2.094-1.475-3.158-.394-14.6-1.065-29.21-.867-43.806.31-22.622 1.208-45.236 1.91-67.854.27-8.705.972-17.405.955-26.106-.018-8.163-.876-16.32-1.096-24.486a999.514 999.514 0 01-.365-30.684c.046-13.095.236-26.19.527-39.282.199-8.96.836-17.907.996-26.866.425-23.686.697-47.371 1.031-71.057h2.673z"/></g><defs><clipPath id="e"><path clip-rule="evenodd" d="M1.5.166h5.568v316.286H1.5z"/></clipPath></defs><g clip-path="url(#e)"><path fill="#fbfbfb" d="M6.158.165c.121 7.925.376 15.85.332 23.772-.064 11.526-.319 23.051-.539 34.574-.23 12.25-.45 24.5-.798 36.75-.293 10.353-.801 20.699-1.122 31.055-.104 3.328.063 6.664.145 9.997.083 3.404.275 6.808.317 10.215.31 25.865.521 51.729.926 77.594.2 12.966.847 25.923 1.089 38.889.297 15.94.38 31.885.552 47.827.018 1.767.002 3.537.002 5.305l-1.153.309c-.387-.943-1.097-1.878-1.108-2.825-.13-11.618-.108-23.241-.247-34.863-.033-2.773-.754-5.544-.748-8.315.01-4.913.438-9.823.48-14.736.026-2.836-.414-5.675-.557-8.518-.275-5.557-.649-11.12-.7-16.684-.138-14.848.02-29.704-.224-44.55-.171-10.254-.933-20.497-1.2-30.748-.109-4.117.512-8.245.573-12.371.031-2.01-.71-4.031-.677-6.04.283-17.563.668-35.124 1.012-52.686.23-11.8.429-23.603.684-35.406.037-1.704.295-3.404.49-5.102 1.004-8.734.456-17.419-.387-26.148-.554-5.718-.237-11.526-.31-17.295h3.168z"/></g><defs><clipPath id="f"><path clip-rule="evenodd" d="M123.717.164h6.345v265.562h-6.345z"/></clipPath></defs><g clip-path="url(#f)"><path fill="#fbfbfb" d="M128.534.163c.265 17.155.556 34.31.786 51.466.133 10.06.122 20.123.263 30.18.089 6.46.565 12.918.465 19.371-.2 13.203-.902 26.4-.973 39.6-.083 14.74-.276 29.518.664 44.207.844 13.203-1.027 26.188-1.328 39.283-.27 11.753-.982 23.5-1.62 35.242-.108 2.014-.814 3.992-1.92 6.213-.404-1.674-1.244-3.376-1.146-5.02.632-10.649 1.969-21.276 2.147-31.925.552-32.71.768-65.429.96-98.146.151-25.617.212-51.239.049-76.854-.111-17.874-.664-35.744-1.02-53.617h2.673z"/></g><defs><clipPath id="g"><path clip-rule="evenodd" d="M101.829.163h5.459v240.748h-5.459z"/></clipPath></defs><g clip-path="url(#g)"><path fill="#fbfbfb" d="M106.09.163c.433 11.487 1.294 22.984 1.19 34.465-.143 15.801-1.078 31.591-1.56 47.388-.297 9.704-.158 19.424-.608 29.117-1.094 23.56-.346 47.089.485 70.63.299 8.426-.163 16.878-.094 25.316.086 10.15.414 20.299.51 30.45.013 1.123-.806 2.256-1.24 3.383l-.887-.277c-.282-6.681-.706-13.358-.807-20.04-.117-7.775.122-15.554.07-23.33-.055-8.25-.271-16.5-.414-24.748-.22-12.745-.082-25.513-.777-38.226-.51-9.317.638-18.466.916-27.696.36-11.951.048-23.923.319-35.88.304-13.382 1.172-26.752 1.335-40.138.105-8.34-.655-16.691-.989-25.044-.073-1.786.017-3.58.032-5.37h2.52z"/></g><defs><clipPath id="h"><path clip-rule="evenodd" d="M93.061.166h4.4v227.256h-4.4z"/></clipPath></defs><g clip-path="url(#h)"><path fill="#fbfbfb" d="M95.81.165c.248 20.61.464 41.218.757 61.827.225 15.937.745 31.871.768 47.808.016 13.052-.665 26.101-.734 39.153-.043 8.637.495 17.273.674 25.914.128 6.111.296 12.232.087 18.338-.383 11.327-1.029 22.646-1.565 33.971-.303.082-.603.163-.903.246-.472-1.535-1.37-3.07-1.352-4.598.204-16.664.756-33.322.813-49.987.094-28.114-.112-56.23-.171-84.347-.028-12.164.096-24.33-.035-36.494-.176-16.383-.527-32.768-.818-49.153-.016-.893-.176-1.785-.27-2.678h2.75z"/></g><defs><clipPath id="i"><path clip-rule="evenodd" d="M60.762.166h5.581v195.79h-5.581z"/></clipPath></defs><g clip-path="url(#i)"><path fill="#fbfbfb" d="M64.983.166c.068 3.665.033 7.335.229 10.993.33 6.189 1.133 12.37 1.13 18.557-.001 6.714-.87 13.424-1.049 20.148-.272 10.238-.169 20.488-.42 30.73-.411 16.879-1.258 33.754-1.401 50.635-.126 14.64.435 29.287.763 43.928.123 5.473.431 10.944.689 16.413.088 1.87-.544 3.216-3.109 4.387 0-9.7.137-18.86-.03-28.016-.26-14.275-1.182-28.554-1-42.82.28-22 1.283-43.987 1.919-65.984.312-10.863.653-21.733.673-32.599.009-7.092-.572-14.182-.812-21.275-.057-1.693.196-3.397.306-5.097h2.112z"/></g><defs><clipPath id="j"><path clip-rule="evenodd" d="M81.039.156h3.268v48.233h-3.268z"/></clipPath></defs><g clip-path="url(#j)"><path fill="#fbfbfb" d="M84.308.155c-.01 12.97.01 25.937-.05 38.907-.013 3.033-.293 6.067-.452 9.086-2.79.86-2.819-.73-2.75-2.488.326-8.465.718-16.928.918-25.395.157-6.702.07-13.407.094-20.11h2.24z"/></g><defs><clipPath id="k"><path clip-rule="evenodd" d="M-953 0H487v810H-953z"/></clipPath></defs><g clip-path="url(#k)"><path fill="#fbfbfb" d="M35.927 720c-.34-2.006-.99-4.013-.975-6.012.157-21.756.397-43.508.661-65.259.212-17.526.77-35.053.67-52.574-.173-31.461-.664-62.92-1.142-94.377-.236-15.639-.886-31.266-1.071-46.902-.138-11.664.244-23.333.264-34.999.021-11.208-.23-22.415-.162-33.623.087-14.473.383-28.944.57-43.417.214-16.628.558-33.259.543-49.884-.006-7.427-.75-14.854-1.158-22.278-.025-.45-.072-.902-.051-1.348.211-4.532.547-9.057.61-13.591.036-2.544-.469-5.09-.563-7.643-.263-7.094-.55-14.188-.616-21.281-.057-5.909.25-11.82.28-17.73.018-3.936-.212-7.877-.244-11.815-.045-5.715-.011-11.43-.011-17.267 1.513.774 1.968 2.071 1.96 3.97-.056 11.862-.187 23.73.002 35.588.274 17.431.865 34.855 1.187 52.286.245 13.3.411 26.606.381 39.909-.053 23.742-.313 47.485-.425 71.224-.066 14.121.08 28.239-.045 42.352-.072 7.989-.716 15.976-.707 23.963.01 10.415.393 20.831.652 31.247.291 11.682.72 23.36.914 35.042.346 20.652.594 41.303.816 61.955.142 13.115.286 26.234.214 39.349-.068 12.137-.46 24.269-.642 36.405-.323 21.288-.6 42.577-.89 63.863-.013.872-.002 1.747-.002 2.62-.34.076-.68.153-1.02.227"/></g><defs><clipPath id="l"><path clip-rule="evenodd" d="M-953 0H487v810H-953z"/></clipPath></defs><g clip-path="url(#l)"><path fill="#fbfbfb" d="M94.957 245.425c-.574 6.267-1.23 12.527-1.695 18.8-.386 5.184-.698 10.382-.77 15.577-.176 12.758-.06 25.521-.316 38.278-.233 11.567-1.026 23.128-1.133 34.694-.062 6.611.793 13.224 1.156 19.841.444 8.067.882 16.14 1.189 24.216.527 13.995.934 27.996 1.425 41.99.298 8.519.663 17.037.99 25.553.292 7.503.617 15.006.854 22.509.286 9.138.937 18.297.626 27.418-.382 11.111-1.893 22.183-2.365 33.294-.368 8.676.04 17.39.225 26.083.193 9.065.56 18.127.796 27.194.16 6.184.335 12.372.311 18.558-.07 16.889-.358 33.78-.328 50.666.019 11.404.391 22.809.675 34.213.237 9.487.637 18.972.844 28.459.123 5.637.016 11.277.01 16.915-.008 6.896-.043 13.795-.012 20.691.011 2.242-.73 3.258-3.196 2.215 1.41-17.064.821-34.085.11-51.144-.882-21.086-1.107-42.206-1.235-63.315-.096-15.693.595-31.393.586-47.09-.007-9.06-.742-18.12-1.082-27.183-.323-8.606-.939-17.223-.72-25.818.246-9.756 1.544-19.481 1.895-29.238.444-12.278.4-24.569.542-36.856.018-1.615-.13-3.233-.168-4.846-.295-12.752-.43-25.509-.907-38.252a3682.34 3682.34 0 00-2.516-55.948c-.532-10.123-1.935-20.214-2.142-30.335-.288-14.093.072-28.198.347-42.293.33-16.97.765-33.94 1.349-50.902.246-7.168.911-14.332 1.595-21.475.098-1.02 1.393-1.932 2.132-2.894.31.142.619.285.928.425"/></g><defs><clipPath id="m"><path clip-rule="evenodd" d="M-953 0H487v810H-953z"/></clipPath></defs><g clip-path="url(#m)"><path fill="#fbfbfb" d="M106.162 266c.372.827 1.05 1.647 1.068 2.482.318 14.806.761 29.612.763 44.415.004 18.393-.41 36.789-.57 55.18-.18 20.913-.286 41.827-.415 62.738-.085 14.004-.408 28.01-.168 42.005.303 17.674 1.174 35.335 1.6 53.005.29 12.016.196 24.038.345 36.059.23 18.22.747 36.44.713 54.663-.024 14.713-.829 29.422-1.024 44.138-.3 22.716-.248 45.437-.593 68.153-.193 12.644-.933 25.28-1.33 37.925-.131 4.214.122 8.444-.007 12.66-.027.874-.964 1.717-1.482 2.577-.451-.831-1.285-1.656-1.293-2.491-.092-8.085-.61-16.228.096-24.238 1.037-11.816 1.176-23.621 1.338-35.452.264-19.499.668-39 .946-58.502.254-17.947.553-35.893.58-53.841.023-15.062-.33-30.124-.492-45.188-.106-9.776-.06-19.557-.27-29.331-.495-22.793-1.263-45.581-1.606-68.377-.19-12.692-.124-25.386.42-38.098.574-13.343.002-26.74.046-40.113.069-20.835.212-41.672.364-62.507.1-13.813.33-27.62.368-41.432.01-3.841-.48-7.685-.688-11.533-.08-1.476-.013-2.96-.013-4.441.435-.15.87-.305 1.304-.456"/></g><defs><clipPath id="n"><path clip-rule="evenodd" d="M-953 0H487v810H-953z"/></clipPath></defs><g clip-path="url(#n)"><path fill="#fbfbfb" d="M49.882 198c1.432 1.88 2.706 3.39 2.527 5.937-.467 6.697-.913 13.411-1.03 20.127-.252 14.454-.204 28.917-.463 43.37-.108 6.094-.898 12.177-.977 18.27-.117 8.79.119 17.583.225 26.375.273 22.533.444 45.07.88 67.599.225 11.657 1.227 23.304 1.348 34.959.225 21.634.077 43.274.056 64.911-.018 19.565-.087 39.132-.112 58.695-.021 14.171.125 28.344-.054 42.511-.117 9.325-.963 18.642-.966 27.964-.002 11.475.486 22.951.857 34.426.221 6.813.803 13.618.907 20.433.237 15.613.273 31.235.419 46.85.019 1.983-.157 3.753-2.55 4.573 0-6.801.074-13.432-.016-20.058-.194-14.362-.404-28.728-.744-43.087-.223-9.51-.926-19.007-.978-28.515-.077-13.883.3-27.771.367-41.659.086-17.679.008-35.358.092-53.04.04-8.342.258-16.686.448-25.026.242-10.584.73-21.163.76-31.747.036-11.938-.135-23.888-.6-35.814-.162-4.178-.508-8.242-.191-12.493.456-6.132-.357-12.372-.615-18.567-.213-5.096-.532-10.193-.58-15.289-.064-7.051.207-14.108.1-21.157-.152-9.943-.552-19.88-.777-29.824-.127-5.653-.092-11.313-.167-16.969-.187-14.175-.552-28.35-.548-42.526.004-10.948.419-21.895.723-32.84.436-15.791.936-31.579 1.416-47.37.008-.235.11-.47.243-1.019"/></g><defs><clipPath id="o"><path clip-rule="evenodd" d="M-953 0H487v810H-953z"/></clipPath></defs><g clip-path="url(#o)"><path fill="#fbfbfb" d="M62.355 736c.406-6.726.834-12.784 1.108-18.849.122-2.658-.145-5.337-.102-8.004.243-14.558.613-29.117.776-43.676.198-17.608.204-35.218.354-52.826.063-7.093.489-14.183.396-21.271-.13-9.967-.676-19.931-.878-29.9-.2-9.789-.118-19.58-.296-29.369-.37-20.491-.789-40.98-1.271-61.467-.172-7.256-.863-14.513-.813-21.766.056-8.255.963-16.506 1-24.759.15-32.106.037-64.207.163-96.313.037-9.155.802-18.31.773-27.462-.032-9.96-.667-19.916-.902-29.878-.12-5.102.222-10.218.066-15.32-.274-9.027-.859-18.04-1.141-27.065-.176-5.633-.033-11.278-.033-17.075 1.617.68 2.434 1.718 2.497 3.713.404 13.112 1.152 26.22 1.34 39.338.3 20.574.3 41.153.323 61.731.015 12.746-.144 25.495-.261 38.243-.128 13.839-.291 27.676-.461 41.517-.206 16.88-.67 33.766-.585 50.648.074 14.446.759 28.892 1.19 43.336.13 4.401.401 8.802.451 13.203.235 21.386.352 42.774.641 64.162.163 12.126.893 24.253.802 36.379-.135 17.972-.839 35.938-1.167 53.91-.21 11.5-.165 23.007-.254 34.512-.1 12.856-.252 25.711-.307 38.569-.01 2.346-.623 4.16-3.41 5.739"/></g><defs><clipPath id="p"><path clip-rule="evenodd" d="M-953 0H487v810H-953z"/></clipPath></defs><g clip-path="url(#p)"><path fill="#fbfbfb" d="M16.362 337c.124 1.487.305 2.688.312 3.888.084 16.149.026 32.3.267 48.447.107 7.253.845 14.493 1.212 21.746.163 3.22.154 6.452.16 9.678.038 18.922.08 37.842.08 56.766 0 17.203-.002 34.406-.095 51.612-.05 9.048-.298 18.096-.456 27.144-.31 17.553-.856 35.111-.85 52.664.008 12.533.736 25.067 1.192 37.599.214 5.912.711 11.819.793 17.733.214 15.783.174 31.569.416 47.35.3 19.532.993 39.061 1.103 58.591.065 12.095-.63 24.197-1.012 36.294-.047 1.413.03 3.111-2.696 2.259 0-5.562-.093-11.202.016-16.836.265-13.62.812-27.236.877-40.856.042-8.595-.721-17.192-.865-25.794-.398-23.584-.575-47.174-1.012-70.758-.195-10.394-1.08-20.777-1.172-31.169-.112-12.077.393-24.156.465-36.235.118-20.807-.037-41.615.2-62.422.2-17.463.956-34.92 1.156-52.386.133-11.565-.235-23.137-.49-34.705-.061-2.76-.82-5.505-.815-8.26.005-4.873.433-9.744.514-14.617.035-2.118-.402-4.242-.544-6.367-.517-7.77-1.163-15.534-1.433-23.31-.16-4.633.405-9.284.44-13.928.058-7.854-.012-15.711-.1-23.566-.026-2.234-.215-4.478-.489-6.696-.242-1.964.74-2.966 2.826-3.866"/></g><defs><clipPath id="q"><path clip-rule="evenodd" d="M-953 0H487v810H-953z"/></clipPath></defs><g clip-path="url(#q)"><path fill="#fbfbfb" d="M81.743 592c-.308-.958-.873-1.913-.882-2.871a2704.36 2704.36 0 01-.128-29.325c.022-24.484.014-48.968.143-73.452.077-14.51.459-29.022.557-43.534.025-3.921-.62-7.841-.723-11.769-.114-4.373-.45-8.85.198-13.11.8-5.282-.753-10.212-.77-15.333-.018-5.188-.46-10.371-.602-15.559-.085-3.037.078-6.083.08-9.125.002-3.788-.07-7.576-.065-11.367.004-2.864.124-5.728.112-8.595-.016-3.564-.106-7.126-.176-10.688-.224-11.293-.48-22.582-.67-33.873-.151-9.044-.398-18.09-.29-27.133.193-16.667.583-33.333 1.026-49.998.03-1.108 1.2-2.178 1.837-3.268l.686.4c0 9.296.168 18.598-.043 27.888-.257 11.282-1.125 22.551-1.198 33.833-.086 13.35.433 26.705.62 40.06.291 21.061.5 42.118.803 63.177.051 3.486.506 6.96.598 10.443.145 5.567.145 11.134.2 16.704.16 16.225.39 32.449.443 48.677.027 7.605-.36 15.214-.43 22.822-.16 17.288-.31 34.577-.32 51.868-.005 7.972.426 15.946.471 23.919.034 5.637-.24 11.278-.403 16.917-.02.682-.198 1.359-.302 2.039-.259.085-.516.168-.772.253"/></g><defs><clipPath id="r"><path clip-rule="evenodd" d="M-953 0H487v810H-953z"/></clipPath></defs><g clip-path="url(#r)"><path fill="#fbfbfb" d="M127.095 810c-.385-.687-1.099-1.364-1.108-2.058-.087-6.728-.203-13.467-.03-20.19.38-14.746 1.337-29.489 1.299-44.226-.045-18.708-.876-37.412-1.306-56.119-.287-12.591-.665-25.184-.64-37.777.025-13.124.787-26.253.671-39.376-.116-13.208-1.045-26.404-1.369-39.619a384.066 384.066 0 01.181-24.26c.61-15.62 1.869-31.217 2.12-46.838.22-13.652-.6-27.326-.886-40.993-.025-1.173.504-2.364.775-3.544l1.196.272c-.264 2.2-.532 4.398-.79 6.598-.05.42-.217.92-.09 1.26 1.615 4.342 1.354 8.863 1.293 13.45-.064 4.642.62 9.294.707 13.946.137 7.198.208 14.405 0 21.597-.168 5.737-.829 11.452-1.209 17.182-.457 6.903-1.082 13.809-1.203 20.726-.13 7.275.231 14.563.415 21.843.24 9.621.696 19.237.742 28.858.133 27.443.021 54.89.185 82.334.056 9.707.686 19.405.941 29.113.085 3.22-.484 6.485-.25 9.68 1.102 15.169.774 30.358.45 45.53-.298 14.009-1.1 28.003-1.68 42.001l-.414.61"/></g><defs><clipPath id="s"><path clip-rule="evenodd" d="M-953 0H487v810H-953z"/></clipPath></defs><g clip-path="url(#s)"><path fill="#fbfbfb" d="M6.05 325.211c0 5.644.035 11.288-.006 16.93-.125 17.439-.315 34.878-.414 52.318-.092 16.53-.22 33.068-.114 49.6.105 16.054.5 32.104.753 48.154.313 19.919.536 39.839.936 59.758.374 18.679 1.284 37.355 1.295 56.033.009 16.796-.914 33.593-1.363 50.391-.12 4.493.048 8.994-.059 13.487-.015.715-.785 1.412-1.207 2.118-.41-.731-1.18-1.464-1.17-2.19.203-18.69.634-37.377.708-56.064.064-15.816-.26-31.635-.433-47.453-.096-8.715-.252-17.43-.348-26.146-.177-15.816-.188-31.636-.551-47.448-.214-9.329-1.013-18.644-1.459-27.971-.116-2.413.175-4.841.151-7.26-.046-4.662-.348-9.327-.25-13.984.263-12.484.731-24.958 1.005-37.44.08-3.676-.35-7.364-.315-11.042.162-17.44.435-34.877.599-52.314.05-5.39-.182-10.784-.149-16.176.009-1.174.6-2.34.921-3.512.49.072.98.142 1.47.211"/></g><defs><clipPath id="t"><path clip-rule="evenodd" d="M-953 0H487v810H-953z"/></clipPath></defs><g clip-path="url(#t)"><path fill="#fbfbfb" d="M139.433 472.234c.158 3.297.35 6.591.468 9.888.409 11.422.939 22.84 1.15 34.27.43 23.132.676 46.272 1.005 69.41.147 10.261.563 20.525.411 30.781-.192 12.956-1.026 25.902-1.24 38.859-.255 15.487.028 30.983-.24 46.471-.36 20.792-1.162 41.574-1.509 62.366-.21 12.68.085 25.366.148 38.05.01 2.425 0 4.852 0 7.31-1.695.645-2.509.586-2.53-1.523-.17-16.925-.518-33.85-.596-50.777-.021-4.746.695-9.494 1.028-14.246.139-1.965.171-3.941.23-5.913.195-6.548.43-13.094.547-19.647.055-2.943-.229-5.892-.194-8.835.303-25.932.677-51.861.96-77.793.215-19.275.522-38.548.43-57.821-.103-20.89-.56-41.773-.977-62.66-.23-11.427-.742-22.847-1.008-34.273-.03-1.375.69-2.765 1.062-4.151.286.079.572.158.855.234"/></g><defs><clipPath id="u"><path clip-rule="evenodd" d="M-953 0H487v810H-953z"/></clipPath></defs><g clip-path="url(#u)"><path fill="#fbfbfb" d="M153.638 496c.41 1.012 1.15 2.017 1.179 3.042.236 8.71.456 17.42.467 26.133.021 14.096-.213 28.194-.166 42.288.076 23.448.414 46.894.38 70.343-.014 8.251-.818 16.499-1.233 24.75-.403 8.062-.683 16.129-1.176 24.184-.456 7.417-1.392 14.811-1.635 22.227-.586 17.864-.929 35.733-1.295 53.599-.231 11.23-.343 22.464-.477 33.696-.05 4.184-.01 8.368-.01 12.536-2.387.384-2.503.395-2.676-1.567-.267-3.038-.494-6.091-.496-9.139-.002-6.906.063-13.813.243-20.719.255-9.607.702-19.211.95-28.817.206-7.99.083-15.989.398-23.975.426-10.766 1.128-21.522 1.714-32.284.996-18.273 2.26-36.539 2.9-54.826.435-12.473.006-24.975-.047-37.459-.055-12.765-.123-25.528-.187-38.293-.047-9.076-.14-18.154-.14-27.23 0-11.846.07-23.694.119-35.54.004-.887.08-1.773.125-2.659l1.063-.29"/></g><defs><clipPath id="v"><path clip-rule="evenodd" d="M167.856 517.236h6.476v292.445h-6.476z"/></clipPath></defs><g clip-path="url(#v)"><path fill="#fbfbfb" d="M170.133 517.236c2.66.018 2.672 1.474 2.69 3.102.185 16.337.367 32.678.642 49.013.257 15.162.927 30.324.864 45.484-.056 13.004-1.097 25.998-1.323 39.004-.297 17.141-.04 34.293-.36 51.434-.368 19.742-1.267 39.478-1.621 59.222-.217 12.108.154 24.222.252 36.333.023 2.862.004 5.726.004 8.626-1.799.418-2.77.436-2.795-1.516-.196-15.978-.604-31.958-.63-47.937-.007-5.982.975-11.962 1.25-17.954.292-6.357.288-12.725.397-19.091.22-12.604.427-25.212.64-37.816 2.965-3.603.347-7.316.27-10.986-.081-3.852.045-7.714.098-11.571.206-14.632.509-29.259.605-43.891.102-15.717.137-31.438-.026-47.158-.182-17.143-.628-34.284-.954-51.427-.017-.95-.003-1.898-.003-2.871"/></g><defs><clipPath id="w"><path clip-rule="evenodd" d="M-953 0H487v810H-953z"/></clipPath></defs><g clip-path="url(#w)"><path fill="#fbfbfb" d="M34.603 4c.9.764 2.035 1.259 2.074 1.828.393 5.623.877 11.259.818 16.886-.136 12.688-.623 25.371-.86 38.057-.286 15.391-.447 30.783-.684 46.177-.215 14.034-.575 28.07-.643 42.105-.04 8.225.36 16.451.557 24.679.02.862.005 1.725.005 3.268-1.837-2.722-3.12-4.72-3.103-7.636.068-11.804-.246-23.607-.266-35.41-.014-8.402.19-16.805.35-25.207.17-8.943.393-17.885.609-26.83.31-12.793-.04-25.649 1.143-38.361 1.121-12.066-.866-23.934-.572-35.898.018-.712-.05-1.427-.025-2.137.009-.25.184-.495.597-1.521"/></g><defs><clipPath id="x"><path clip-rule="evenodd" d="M-953 0H487v810H-953z"/></clipPath></defs><g clip-path="url(#x)"><path fill="#fbfbfb" d="M48.723 175.617c0-4.104.026-8.209-.004-12.313-.061-7.543-.234-15.088-.218-22.633.028-12.59.124-25.18.283-37.773.073-5.658.307-11.316.583-16.97.285-5.818.826-11.624 1.039-17.444.17-4.564-.038-9.144.01-13.715.158-15.562.353-31.127.544-46.69.003-.258.115-.517.18-.792 2.128-.858 2.357.331 2.352 1.907-.028 8.815.064 17.632-.053 26.444-.227 16.914-.443 33.827-.904 50.731-.292 10.69-1.329 21.367-1.46 32.058-.12 9.791.67 19.594.796 29.395.107 8.275-.096 16.556-.32 24.828-.034 1.13-.986 2.233-1.513 3.35-.437-.128-.877-.254-1.315-.383"/></g><defs><clipPath id="y"><path clip-rule="evenodd" d="M-953 0H487v810H-953z"/></clipPath></defs><g clip-path="url(#y)"><path fill="#fbfbfb" d="M123.318 405.362c-.922-14.884-2.225-29.762-2.66-44.66-.404-13.835.076-27.697.236-41.543.137-11.782.35-23.56.59-35.342.03-1.396.362-2.815.761-4.16.108-.36.977-.594 1.522-.657.146-.016.636.876.546 1.248-.835 3.436.065 6.838.047 10.22-.079 14.65-1.048 29.299-1.091 43.951-.04 13.187-1.107 26.405 1.003 39.576.822 5.12.665 10.403.838 15.616.51 15.366.976 30.735 1.39 46.103.02.753-.63 1.525-.968 2.286-.463-.718-1.291-1.419-1.331-2.162-.548-10.144-.988-20.295-1.453-30.444.19-.009.382-.02.57-.032"/></g><defs><clipPath id="z"><path clip-rule="evenodd" d="M-953 0H487v810H-953z"/></clipPath></defs><g clip-path="url(#z)"><path fill="#fbfbfb" d="M81.94 203c-.617-.935-1.736-1.85-1.774-2.808-.399-9.65-.671-19.303-.875-28.957-.23-10.909-.38-21.82-.514-32.733-.115-9.476-.453-18.963-.162-28.432.347-11.43 1.363-22.841 1.872-34.271.312-6.991.221-13.995.305-20.995.012-.883.003-1.767.003-2.804h2.47c.118.305.24.468.235.626-.373 14.795-.92 29.587-1.096 44.384-.192 16.322-.051 32.651-.051 48.978 0 10.554-.11 21.112.054 31.668.11 6.941.638 13.877.929 20.818.056 1.318-.127 2.644-.2 3.966-.399.187-.797.372-1.196.56"/></g><defs><clipPath id="A"><path clip-rule="evenodd" d="M-953 0H487v810H-953z"/></clipPath></defs><g clip-path="url(#A)"><path fill="#fbfbfb" d="M84.416 755c-.409-1.444-1.149-2.878-1.176-4.331-.56-31.494-.994-62.996-1.566-94.49-.184-10.136-.797-20.258-1.015-30.394-.198-9.223-.133-18.454-.159-27.682-.002-1.325.151-2.65.234-3.987 1.98-.445 2.382.4 2.386 2.403.02 16.14.074 32.281.265 48.421.194 16.412.538 32.82.852 49.23.136 7.09.4 14.175.544 21.267.263 13.089.481 26.181.719 39.271l-1.084.292"/></g><defs><clipPath id="B"><path clip-rule="evenodd" d="M-953 0H487v810H-953z"/></clipPath></defs><g clip-path="url(#B)"><path fill="#fbfbfb" d="M5.682 809H2.506c0-6.959-.014-13.794.002-20.626.033-13.568-.075-27.138.186-40.7.138-7.28 1.079-14.546 1.368-21.827.268-6.774.113-13.561.212-20.34.127-8.748.282-17.494.555-26.238.02-.77.99-1.514 1.516-2.269.405.764 1.167 1.534 1.155 2.294-.2 13.03-.466 26.057-.78 39.082-.224 9.28-.577 18.558-.81 27.838-.249 9.986-.59 19.973-.592 29.961-.003 10.531.35 21.059.536 31.592.007.346-.094.693-.172 1.233"/></g><defs><clipPath id="C"><path clip-rule="evenodd" d="M-953 0H487v810H-953z"/></clipPath></defs><g clip-path="url(#C)"><path fill="#fbfbfb" d="M33.807 808.77c-2.405-29.323-1.132-58.523.929-87.77 2.33.165 2.842 1.313 2.755 2.982-.403 7.486-.947 14.97-1.071 22.462-.207 12.19-.154 24.384-.154 36.577 0 7.852.111 15.703.156 23.55.01 1.584-.225 2.997-2.615 2.2"/></g><defs><clipPath id="D"><path clip-rule="evenodd" d="M-953 0H487v810H-953z"/></clipPath></defs><g clip-path="url(#D)"><path fill="#fbfbfb" d="M50.5 808.968c.424-22.028.842-43.838 1.26-65.646l.48-.322c.438.956 1.26 1.911 1.26 2.865a9291.34 9291.34 0 01-.228 59.845c-.023 3.305-.241 3.382-2.772 3.258"/></g><defs><clipPath id="E"><path clip-rule="evenodd" d="M-953 0H487v810H-953z"/></clipPath></defs><g clip-path="url(#E)"><path fill="#fbfbfb" d="M61.378 808.846c-.295-17.45-.592-34.68-.874-51.912-.035-2.2.1-4.347 3.438-4.934 0 4.22-.043 8.414.008 12.61.166 13.825.377 27.653.534 41.478.017 1.517.352 3.48-3.106 2.757"/></g><defs><clipPath id="F"><path clip-rule="evenodd" d="M-953 0H487v810H-953z"/></clipPath></defs><g clip-path="url(#F)"><path fill="#fbfbfb" d="M82.512 808.828c0-11.947-.062-23.687.097-35.425.017-1.206 1.37-2.39 2.553-3.403-.455 2.59 1.611 5.443-1.054 7.622-.193.158-.148.909.026 1.248 1.957 3.81.938 7.937 1.02 11.893.11 5.365-.383 10.738-.574 16.11-.051 1.45-.242 2.57-2.068 1.955"/></g><defs><clipPath id="G"><path clip-rule="evenodd" d="M-953 0H487v810H-953z"/></clipPath></defs><g clip-path="url(#G)"><path fill="#fbfbfb" d="M94.75 809.84c-1.656.489-2.29-.143-2.248-1.88.15-6.678.155-13.36.441-20.027.052-1.173 1.202-2.289 2.128-3.933.3 1.077.465 1.346.422 1.573-1.477 7.984.315 16.076-.743 24.267"/></g><defs><clipPath id="H"><path clip-rule="evenodd" d="M-953 0H487v810H-953z"/></clipPath></defs><g clip-path="url(#H)"><path fill="#fbfbfb" d="M173.5 515c-2.674-2.022-3.593-8.306-2.625-15.996 1.72-.075 2.62.807 2.622 2.834.005 4.265.002 8.528.002 13.162"/></g><defs><clipPath id="I"><path clip-rule="evenodd" d="M-953 0H487v810H-953z"/></clipPath></defs><g clip-path="url(#I)"><path fill="#fbfbfb" d="M125.843 451.6c-.463-2.855-1-5.703-1.337-8.572-.073-.638.548-1.35.85-2.028.498.587 1.299 1.119 1.436 1.768.402 1.902.732 3.85.707 5.776-.016 1.157-.748 2.303-1.16 3.456-.166-.132-.331-.267-.496-.4"/></g><defs><clipPath id="J"><path clip-rule="evenodd" d="M-953 0H487v810H-953z"/></clipPath></defs><g clip-path="url(#J)"><path fill="#fbfbfb" d="M80.586 212.32c0-2.032-.245-4.107.093-6.08.2-1.163 1.325-2.165 2.035-3.24l.786.357c-.227 2.696-.365 5.406-.755 8.078-.084.588-1.062 1.046-1.627 1.565-.176-.227-.354-.454-.532-.68"/></g><defs><clipPath id="K"><path clip-rule="evenodd" d="M-953 0H487v810H-953z"/></clipPath></defs><g clip-path="url(#K)"><path fill="#fbfbfb" d="M107.483 254c0 2.804.064 5.194-.054 7.577-.023.496-.641 1.053-1.147 1.399-.169.118-.981-.223-1.237-.53-1.359-1.63-.04-6.936 2.438-8.446"/></g><defs><clipPath id="L"><path clip-rule="evenodd" d="M-953 0H487v810H-953z"/></clipPath></defs><g clip-path="url(#L)"><path fill="#fbfbfb" d="M106.04 804c-3.2-2.44-2.277-5.814-2.54-9 3.289 2.205 3.412 2.639 2.54 9"/></g><defs><clipPath id="M"><path clip-rule="evenodd" d="M-953 0H487v810H-953z"/></clipPath></defs><g clip-path="url(#M)"><path fill="#fbfbfb" d="M155.5 479c-.983 2.934 1.407 6.154-2.133 8-1.62-3.231-1.005-6.346 2.133-8"/></g><defs><clipPath id="N"><path clip-rule="evenodd" d="M-953 0H487v810H-953z"/></clipPath></defs><g clip-path="url(#N)"><path fill="#fbfbfb" d="M51.444 180c.737 1.117 2.068 2.242 2.056 3.354-.015 1.221-1.269 2.431-1.98 3.646-.34-.11-.68-.221-1.02-.334v-6.192c.315-.16.63-.317.944-.474"/></g><defs><clipPath id="O"><path clip-rule="evenodd" d="M-953 0H487v810H-953z"/></clipPath></defs><g clip-path="url(#O)"><path fill="#fbfbfb" d="M103.5 792.597v-6.25l.81-.347c.778 1.335 1.984 2.616 2.182 4.025.124.892-1.252 1.976-1.955 2.975l-1.037-.403"/></g><defs><clipPath id="P"><path clip-rule="evenodd" d="M-953 0H487v810H-953z"/></clipPath></defs><g clip-path="url(#P)"><path fill="#fbfbfb" d="M138.5 463c-.81 2.376 1.339 5.164-1.99 7-1.774-3.86-1.272-5.793 1.99-7"/></g><defs><clipPath id="Q"><path clip-rule="evenodd" d="M-953 0H487v810H-953z"/></clipPath></defs><g clip-path="url(#Q)"><path fill="#fbfbfb" d="M63.368 199c.315 3.923.254 4.085-2.343 6-1.17-3.05-.382-5.074 2.343-6"/></g><defs><clipPath id="R"><path clip-rule="evenodd" d="M-953 0H487v810H-953z"/></clipPath></defs><g clip-path="url(#R)"><path fill="#fbfbfb" d="M79.5 230c.138-2.553.252-4.638.378-7 3.571 3.053 3.541 4.877-.378 7"/></g><defs><clipPath id="S"><path clip-rule="evenodd" d="M-953 0H487v810H-953z"/></clipPath></defs><g clip-path="url(#S)"><path fill="#fbfbfb" d="M61.5 744l1.879-6c.24.078.482.155.723.235.885 2.888.409 4.283-2.602 5.765"/></g><defs><clipPath id="T"><path clip-rule="evenodd" d="M-953 0H487v810H-953z"/></clipPath></defs><g clip-path="url(#T)"><path fill="#fbfbfb" d="M95.359 781c-.648-1.217-1.435-2.412-1.85-3.669-.116-.35.867-.884 1.344-1.331.568.393 1.591.768 1.625 1.183.103 1.229-.182 2.476-.315 3.715-.27.036-.537.068-.804.102"/></g><defs><clipPath id="U"><path clip-rule="evenodd" d="M-953 0H487v810H-953z"/></clipPath></defs><g clip-path="url(#U)"><path fill="#fbfbfb" d="M122.562 269c1.353.678 2.943 1.166 2.874 1.493-.255 1.198-1.065 2.343-1.668 3.507-.402-.065-.804-.127-1.206-.19V269z"/></g><defs><clipPath id="V"><path clip-rule="evenodd" d="M-953 0H487v810H-953z"/></clipPath></defs><g clip-path="url(#V)"><path fill="#fbfbfb" d="M82.161 221c-.528-1.252-1.203-2.492-1.464-3.768-.054-.273 1.404-.683 2.607-1.232v4.82l-1.143.18"/></g><defs><clipPath id="W"><path clip-rule="evenodd" d="M-953 0H487v810H-953z"/></clipPath></defs><g clip-path="url(#W)"><path fill="#fbfbfb" d="M50.651 722c3.57 1.592 3.624 3.265 0 5v-5z"/></g><defs><clipPath id="X"><path clip-rule="evenodd" d="M-953 0H487v810H-953z"/></clipPath></defs><g clip-path="url(#X)"><path fill="#fbfbfb" d="M50.5 194.51c.579-1.504 1.156-3.006 1.732-4.51.422.177.844.355 1.268.535L51.664 195c-.387-.164-.777-.326-1.164-.49"/></g><defs><clipPath id="Y"><path clip-rule="evenodd" d="M-953 0H487v810H-953z"/></clipPath></defs><g clip-path="url(#Y)"><path fill="#fbfbfb" d="M139.5 445v5c-1.408-.954-3.103-1.633-2.995-2.134.183-.829 1.521-1.546 2.994-2.866"/></g><defs><clipPath id="Z"><path clip-rule="evenodd" d="M-953 0H487v810H-953z"/></clipPath></defs><g clip-path="url(#Z)"><path fill="#fbfbfb" d="M85.5 764.069L83.544 768c-.35-.268-.695-.538-1.044-.806L84.346 763c.386.358.77.711 1.154 1.069"/></g><defs><clipPath id="aa"><path clip-rule="evenodd" d="M-953 0H487v810H-953z"/></clipPath></defs><g clip-path="url(#aa)"><path fill="#fbfbfb" d="M95.213 233v5c-3.186-2.01-3.282-3.44 0-5"/></g><defs><clipPath id="ab"><path clip-rule="evenodd" d="M-953 0H487v810H-953z"/></clipPath></defs><g clip-path="url(#ab)"><path fill="#fbfbfb" d="M51.5 734.319c.59-1.44 1.182-2.879 1.77-4.319l1.23.692L52.717 735l-1.217-.681z"/></g><defs><clipPath id="ac"><path clip-rule="evenodd" d="M-953 0H487v810H-953z"/></clipPath></defs><g clip-path="url(#ac)"><path fill="#fbfbfb" d="M156.396 469v5c-3.708-2.937-3.735-3.545 0-5"/></g></svg>