<svg width="235" height="69" viewBox="0 0 235 69" xmlns="http://www.w3.org/2000/svg"><mask id="a" maskUnits="userSpaceOnUse" x="0" y="0" width="45" height="58"><path fill="#fbfbfb" fill-rule="evenodd" clip-rule="evenodd" d="M0 .006h44.67v57.859H0V.006z"/></mask><g mask="url(#a)"><path fill="#d92e39" fill-rule="evenodd" clip-rule="evenodd" d="M37.448 30.493c0 5.44 2.089 10.204 5.534 13.55l-13.004 13.2a2.07 2.07 0 01-2.96 0L.613 30.438a2.148 2.148 0 010-3.005L27.018.628a2.072 2.072 0 012.96 0L44.67 15.542c-4.445 3.312-7.222 8.67-7.222 14.95z"/></g><path fill="#d92e39" fill-rule="evenodd" clip-rule="evenodd" d="M57.107 31.16L48.278 40c-2.156-2.185-3.469-5.272-3.469-8.764 0-4.391 2.053-8.127 5.278-10.236l7.02 7.029a2.217 2.217 0 010 3.131z"/><path fill="#282b65" fill-rule="evenodd" clip-rule="evenodd" d="M56.867 18.923c4.655 0 8.573 2.453 10.453 6.512h7.276C72.612 17.339 65.713 12 56.886 12c-4.334 0-8.234 1.305-11.343 3.559l5.194 5.13c1.739-1.124 3.83-1.766 6.13-1.766zm10.407 16.37c-1.947 4.291-5.731 6.78-10.407 6.78-3.115 0-5.875-1.208-7.884-3.21l-5.17 5.106C47.142 47.116 51.703 49 56.867 49c8.819 0 15.85-5.464 17.815-13.707h-7.408zm42.933-4.812c0-6.65-4.875-11.575-11.547-11.575-6.671 0-11.593 4.971-11.593 11.575 0 6.605 4.922 11.576 11.593 11.576 6.672 0 11.547-4.925 11.547-11.576zm7.293-17.64v35.28h-5.868l-.708-4.29C107.718 47.064 103.247 49 98.088 49c-10.543 0-18.427-7.943-18.427-18.519C79.661 19.878 87.545 12 98.088 12c5.218 0 9.734 1.965 12.946 5.252l.851-4.412h5.615zm31.864 29.499V49h-5.545c-7.951 0-12.857-4.822-12.857-12.703V19.61h-6.492v-1.418L137.094 5h1.269v8.327h10.799v6.282h-10.74v16.11c0 4.253 2.408 6.62 6.803 6.62h4.139zM174.703 49c-10.44 0-18.368-8-18.368-18.538S164.244 12 174.722 12c8.66 0 15.43 5.34 17.376 13.435h-7.139c-1.844-4.058-5.689-6.511-10.256-6.511-6.309 0-11.035 5.017-11.035 11.556 0 6.539 4.79 11.595 11.035 11.595 4.586 0 8.302-2.491 10.21-6.782h7.269c-1.928 8.244-8.828 13.706-17.479 13.706V49zm58.305-21.738V49h-7.204V28.79c0-6.533-2.714-10.031-8.04-10.031-5.45 0-9.416 4.538-9.416 10.929V49h-7.204V0h7.204v17.029c2.69-3.08 6.699-4.92 11.384-4.92 8.177 0 13.276 5.86 13.276 15.153zM45.226 65.523h4.107l-2.075-5.136-2.032 5.136zm4.475.921h-4.84L43.844 69h-1.025L46.8 59h.89l4.09 10h-1.043L49.7 66.444zm15.037-2.448c0-2.346-1.633-4.054-3.925-4.054h-2.096v8.116h2.096c2.288 0 3.925-1.712 3.925-4.062zm.982 0c0 2.9-2.051 5.004-4.878 5.004h-3.088V59h3.088c2.83 0 4.878 2.1 4.878 4.996zM80.657 59l-3.985 10h-.908l-4.07-10h1.1l3.425 8.492L79.57 59h1.088zm5.974 10h.996V59h-.996v10zm8.962-3.083h.861c0 1.317.907 2.125 2.193 2.125 1.167 0 2.051-.738 2.051-1.879 0-1.27-1.058-1.548-2.206-1.854-1.304-.35-2.732-.737-2.732-2.64 0-1.646 1.107-2.669 2.819-2.669 1.698 0 2.755 1.108 2.755 2.834h-.836c0-1.18-.808-1.896-1.936-1.896-1.142 0-1.957.65-1.957 1.692 0 1.202 1.04 1.48 2.172 1.78 1.329.364 2.791.761 2.791 2.744 0 1.784-1.252 2.846-2.912 2.846-1.83 0-3.063-1.2-3.063-3.083zm21.926-1.913c0-2.317-1.689-4.053-4.002-4.053-2.313 0-4.002 1.75-4.002 4.053 0 2.3 1.689 4.046 4.002 4.046 2.313 0 4.002-1.733 4.002-4.046zm-8.981 0c0-2.855 2.092-5.004 4.979-5.004s4.979 2.144 4.979 5.004c0 2.856-2.092 4.996-4.979 4.996s-4.979-2.144-4.979-4.996zm18.772-.005h2.279c1.117 0 1.877-.846 1.877-2.022 0-1.17-.764-2.026-1.877-2.026h-2.279V64zm2.144.95h-2.144V69h-.848V59h3.169c1.554 0 2.7 1.247 2.7 2.987 0 1.436-.803 2.544-1.976 2.867L132.436 69h-.957l-2.025-4.05zm14.404.077V69h-.968v-3.973L139.407 59h1.032l2.941 5.079L146.34 59h1.033l-3.515 6.026zm31.396-.91c-.073 2.87-2.1 4.884-4.941 4.884-2.921 0-5.016-2.114-5.016-5 0-2.882 2.121-5 4.997-5 2.37 0 4.364 1.454 4.8 3.497h-1.024c-.426-1.51-1.953-2.544-3.757-2.544-2.321 0-4 1.69-4 4.046 0 2.385 1.636 4.048 4 4.048 2.01 0 3.546-1.21 3.866-3.007h-4.261v-.924h5.336zm8.815-.117h2.279c1.116 0 1.876-.846 1.876-2.022 0-1.17-.763-2.026-1.876-2.026h-2.279V64zm2.143.95h-2.143V69h-.849V59h3.169c1.554 0 2.7 1.247 2.7 2.987 0 1.436-.803 2.544-1.975 2.867L189.195 69h-.958l-2.025-4.05zm18.935-.945c0-2.317-1.689-4.053-4.002-4.053-2.313 0-4.002 1.75-4.002 4.053 0 2.3 1.689 4.046 4.002 4.046 2.313 0 4.002-1.733 4.002-4.046zm-8.982 0c0-2.855 2.092-5.004 4.98-5.004 2.886 0 4.978 2.144 4.978 5.004 0 2.856-2.092 4.996-4.978 4.996-2.888 0-4.98-2.144-4.98-4.996zm16.928 1.189V59h.912v6.124c0 1.724 1.07 2.91 2.578 2.91 1.499 0 2.569-1.187 2.569-2.91V59h.912v6.193c0 2.226-1.482 3.807-3.481 3.807-2.01 0-3.49-1.581-3.49-3.807zm21.006-3.054c0-1.242-.848-2.168-2.018-2.168h-2.172v4.339h2.172c1.17 0 2.018-.926 2.018-2.171zm.901 0c0 1.795-1.229 3.142-2.874 3.142h-2.217V69h-.884V59h3.101c1.633 0 2.874 1.337 2.874 3.139z"/></svg>