<svg width="1069" height="130" xmlns="http://www.w3.org/2000/svg"><path fill="#000b8c" fill-rule="evenodd" clip-rule="evenodd" d="M109.625 70.343c3.871 1.614 7.955 3.228 12.721 4.518 1.879.508 6.854.559 8.726.076 4.786-1.232 9.707-2.675 12.645-4.403 9.036-5.322 17.077-10.835 25.7-16.237 2.381-1.49 5.436-2.857 9.018-4.712 13.33 5.887 25.772 11.415 38.332 16.914 5.305 2.323 10.36 4.744 16.419 6.83 10.041 3.457 18.134 3.323 27.159-.487 9.531-4.023 18.01-8.325 27.407-12.388 6.84-2.958 14.42-5.725 23.68-9.369 11.089 5.704 20.5 10.58 30.031 15.43 5.791 2.943 11.617 5.88 17.721 8.751 4.088 1.924 10.126 2.316 15.274.827 9.51-2.75 18.976-5.595 27.079-8.794 11.108-4.386 20.873-9.15 31.323-13.723 4.242-1.856 8.044-2.106 14.434-.427C463.07 57.3 480.22 60.857 496.01 65c8.805 2.31 16.495 5.165 23.807 8.028 14.62 5.726 23.446 3.575 33.614-1.076 11.854-5.426 22.393-11.173 33.5-16.783 5.76-2.906 12.404-3.56 20.755-1.062 21.151 6.331 42.929 12.439 63.426 18.998 11.547 3.698 21.77 3.922 33.796-.996 15.752-6.44 30.317-13.206 45.523-19.8 3.523-1.529 7.556-2.923 12.135-4.68 5.089 1.893 9.494 3.473 13.709 5.108 16.454 6.377 32.798 12.785 49.276 19.154 12.202 4.713 23.877 4.835 35.314-.052 14.679-6.274 28.415-12.797 42.422-19.245 8.64-3.978 10.45-4.225 20.222-.488 15.147 5.794 29.347 11.864 43.913 17.83 1.149.471 1.779 1.096 3.024 1.529 14.524 5.046 18.436 5.295 31.154.059 12.15-5.001 21.48-10.795 31.52-16.346 14.69-8.122 14.49-8.162 31.74-.806.82.346 1.7.674 4.1 1.622 0-2.79.09-4.828-.01-6.864-.27-5.176-13.92-8-26.12-4.849-9.48 2.446-16.75 6.02-23.61 9.407-9.33 4.606-17.33 9.514-27.017 14.913-7.109-2.613-12.178-4.498-17.322-6.36-14.579-5.276-28.146-10.935-44.08-15.702-15.629-4.675-24.193-3.891-36.935 1.921-12.146 5.54-23.869 11.185-36.222 16.672-8.619 3.833-10.501 3.908-20.074.486-18.016-6.437-35.613-13.01-53.164-19.592-15.185-5.694-30.879-5.338-44.439 1.005-12.58 5.884-25.655 11.648-38.228 17.535-5.929 2.777-10.78 3.176-19.1.626-15.247-4.67-31.495-8.995-47.904-13.21-8.059-2.07-17.125-3.768-26.257-5.282-12.332-2.045-25.105-.947-32.943 2.836-10.171 4.909-19.74 9.96-29.282 15.01-4.043 2.14-7.329 2.412-13.657.67-16.788-4.622-33.865-9.158-51.671-13.32-9.105-2.128-19.696-4.307-30.231-4.728-7.952-.317-18.602 1.494-25.016 3.467-12.779 3.932-23.58 8.595-34.959 13.024-3.991 1.554-7.294 3.306-11.929 5.436-9.535-4.133-18.347-7.984-27.259-11.808-5.594-2.401-11.32-4.768-17.015-7.144-11.798-4.92-24.241-4.844-39.494-.068-10.801 3.385-18.773 7.793-27.912 11.77-4.425 1.925-8.637 3.905-14.245 6.451-13.547-5.051-26.258-9.73-38.751-14.471-6.373-2.418-12.219-4.99-18.567-7.416-9.291-3.553-19.885-3.753-28.577-.006-6.874 2.963-11.637 6.489-17.035 9.82-5.74 3.547-11.118 7.158-17.628 11.371L78 47.291v9.604c10.526 4.487 20.951 9.001 31.625 13.448zm-75.511-42c4.176 1.614 8.582 3.228 13.722 4.518 2.027.508 7.394.559 9.413.077 5.163-1.233 10.47-2.676 13.64-4.405 9.747-5.321 18.422-10.834 27.723-16.236 2.569-1.49 5.865-2.857 9.728-4.712 14.38 5.887 27.801 11.415 41.349 16.914 5.723 2.323 11.176 4.744 17.712 6.83 10.831 3.457 19.56 3.323 29.296-.487 10.282-4.023 19.427-8.325 29.564-12.388 7.379-2.958 15.555-5.725 25.544-9.369 11.962 5.704 22.114 10.58 32.395 15.43 6.247 2.943 12.531 5.88 19.115 8.752 4.41 1.923 10.924 2.315 16.477.826 10.259-2.75 20.469-5.595 29.211-8.794 11.981-4.386 22.515-9.15 33.787-13.723 4.577-1.856 8.678-2.106 15.571-.427 17.018 4.15 35.517 7.708 52.55 11.85 9.498 2.31 17.793 5.165 25.681 8.028 15.771 5.726 25.291 3.575 36.259-1.076 12.787-5.426 24.156-11.173 36.137-16.783 6.214-2.906 13.381-3.56 22.389-1.062 22.816 6.331 46.307 12.439 68.418 18.998 12.456 3.698 23.483 3.922 36.456-.996 16.992-6.44 32.703-13.206 49.105-19.8 3.801-1.529 8.151-2.923 13.092-4.68 5.489 1.893 10.24 3.473 14.787 5.108 17.749 6.377 35.38 12.785 53.155 19.154 13.162 4.713 25.755 4.834 38.093-.052 15.834-6.274 30.651-12.797 45.761-19.245 9.32-3.978 11.273-4.225 21.814-.488 16.339 5.793 31.657 11.864 47.369 17.83 1.239.472 1.918 1.096 3.262 1.529 15.667 5.046 19.887 5.295 33.609.059 13.102-5.001 23.162-10.795 33.992-16.346 15.85-8.122 15.63-8.162 34.25-.806.87.346 1.83.674 4.42 1.622 0-2.79.1-4.828-.02-6.864-.29-5.176-15.01-8-28.17-4.849-10.23 2.446-18.07 6.02-25.47 9.407-10.06 4.606-18.694 9.514-29.142 14.913-7.668-2.613-13.136-4.498-18.685-6.36-15.726-5.276-30.361-10.935-47.55-15.702C903.065-.137 893.826.647 880.082 6.46 866.98 12 854.334 17.645 841.009 23.132c-9.298 3.833-11.328 3.908-21.654.486-19.434-6.437-38.416-13.01-57.349-19.592-16.38-5.694-33.309-5.338-47.937 1.005-13.57 5.884-27.674 11.648-41.237 17.535-6.395 2.777-11.628 3.176-20.603.626-16.447-4.67-33.973-8.995-51.674-13.21-8.693-2.07-18.473-3.768-28.324-5.282-13.303-2.045-27.081-.947-35.536 2.836-10.972 4.909-21.294 9.96-31.586 15.01-4.362 2.14-7.906 2.412-14.732.67-18.109-4.622-36.53-9.158-55.738-13.32-9.822-2.128-21.246-4.307-32.611-4.728-8.578-.317-20.066 1.494-26.984 3.467-13.786 3.932-25.437 8.595-37.711 13.024-4.306 1.554-7.869 3.306-12.868 5.436-10.286-4.133-19.791-7.984-29.404-11.808-6.036-2.401-12.212-4.768-18.355-7.144-12.727-4.92-26.149-4.844-42.602-.068-11.651 3.385-20.251 7.793-30.11 11.77-4.773 1.925-9.316 3.905-15.366 6.451-14.613-5.051-28.324-9.73-41.801-14.471-6.874-2.418-13.18-4.99-20.028-7.416-10.022-3.553-21.45-3.753-30.826-.006-7.416 2.963-12.553 6.489-18.376 9.82-6.192 3.547-11.993 7.158-19.015 11.371L0 5.291v9.604c11.354 4.488 22.6 9.001 34.114 13.448zm194.586 95c3.39 1.614 6.968 3.228 11.142 4.518 1.645.508 6.003.559 7.643.076 4.192-1.232 8.502-2.675 11.075-4.404 7.915-5.321 14.958-10.834 22.51-16.236 2.086-1.491 4.762-2.857 7.9-4.712 11.675 5.887 22.573 11.415 33.573 16.914 4.647 2.322 9.075 4.744 14.382 6.83 8.794 3.457 15.883 3.323 23.788-.487 8.348-4.023 15.774-8.325 24.005-12.388 5.991-2.958 12.631-5.725 20.741-9.369 9.713 5.704 17.956 10.58 26.304 15.43 5.072 2.943 10.175 5.88 15.521 8.751 3.581 1.924 8.87 2.316 13.378.827 8.33-2.75 16.621-5.595 23.719-8.794 9.728-4.386 18.282-9.15 27.434-13.723 3.716-1.856 7.047-2.106 12.643-.427 13.819 4.149 28.839 7.708 42.67 11.85 7.712 2.309 14.448 5.165 20.852 8.028 12.806 5.726 20.536 3.575 29.442-1.076 10.382-5.426 19.614-11.173 29.342-16.783 5.045-2.906 10.865-3.561 18.179-1.062 18.526 6.331 37.6 12.439 55.553 18.998 10.115 3.698 19.069 3.922 29.602-.996 13.797-6.44 26.554-13.206 39.872-19.8 3.087-1.529 6.619-2.923 10.63-4.68 4.457 1.893 8.315 3.473 12.007 5.108 14.412 6.377 28.727 12.785 43.161 19.154 10.686 4.713 20.912 4.834 30.93-.052 12.857-6.274 24.888-12.797 37.157-19.245 7.568-3.978 9.153-4.225 17.712-.488 13.267 5.794 25.705 11.865 38.462 17.829 1.007.472 1.558 1.097 2.649 1.53 12.722 5.046 16.148 5.295 27.292.059 10.64-5.001 18.81-10.795 27.6-16.347 12.87-8.121 12.69-8.161 27.81-.805.71.346 1.49.674 3.59 1.622 0-2.791.08-4.828-.02-6.864-.23-5.176-12.19-8-22.87-4.849-8.31 2.446-14.67 6.019-20.68 9.407-8.17 4.606-15.18 9.514-23.67 14.913-6.222-2.613-10.661-4.498-15.167-6.361-12.769-5.276-24.653-10.934-38.61-15.7-13.688-4.676-21.19-3.892-32.35 1.92-10.638 5.541-20.906 11.186-31.726 16.673-7.549 3.833-9.198 3.908-17.582.486-15.781-6.437-31.193-13.01-46.566-19.593-13.3-5.693-27.046-5.337-38.924 1.006-11.018 5.884-22.47 11.648-33.483 17.535-5.193 2.777-9.442 3.176-16.729.626-13.354-4.671-27.586-8.995-41.958-13.21-7.059-2.07-15-3.768-22.999-5.282-10.801-2.045-21.988-.947-28.854 2.836-8.908 4.909-17.29 9.959-25.647 15.01-3.541 2.14-6.419 2.412-11.962.67-14.704-4.622-29.662-9.158-45.258-13.32-7.974-2.128-17.251-4.307-26.479-4.728-6.965-.317-16.293 1.494-21.91 3.467-11.194 3.932-20.654 8.595-30.62 13.024-3.496 1.554-6.39 3.306-10.449 5.436-8.351-4.133-16.07-7.984-23.876-11.808-4.9-2.401-9.915-4.768-14.903-7.144-10.334-4.92-21.232-4.844-34.592-.068-9.46 3.385-16.443 7.794-24.448 11.769-3.876 1.926-7.565 3.906-12.477 6.452-11.865-5.051-22.998-9.729-33.941-14.471-5.582-2.418-10.702-4.991-16.263-7.416-8.137-3.553-17.417-3.753-25.029-.006-6.022 2.963-10.193 6.489-14.922 9.821-5.027 3.546-9.737 7.157-15.439 11.37L201 100.291v9.604c9.219 4.488 18.351 9.001 27.7 13.448z"/></svg>