<svg width="69" height="79" viewBox="0 0 69 79" xmlns="http://www.w3.org/2000/svg"><path fill="#fbfbfb" fill-rule="evenodd" clip-rule="evenodd" d="M63.847 25.35l.03-.032L44.1 7.122l-.027.029c-.11-.105-.215-.211-.327-.315C33.306-2.77 17.015-2.137 7.36 8.253a25.488 25.488 0 00-5.75 9.996A25.485 25.485 0 00.399 26.03c0 14.15 11.528 25.623 25.749 25.623.152 0 .303-.007.455-.01v.04l1.906.002 1.919-8.721h-.02l4.146-18.799a5.194 5.194 0 00-1.476-4.785c-.01-.018-.034-.032-.043-.042a4.992 4.992 0 00-.845-.656c-.024-.024-.052-.043-.076-.062v.01a5.64 5.64 0 00-1.134-.524 10.495 10.495 0 00-.494-.133 13.218 13.218 0 00-2.848-.307c-7.281 0-13.186 5.871-13.186 13.117 0 2.078.484 4.048 1.353 5.79 0 .01.005.015.01.02l-.015-.015a13.169 13.169 0 005.381 5.64C14.217 40.1 9.136 33.647 9.136 26.032c0-1.753.27-3.483.801-5.144l.042-.133a16.723 16.723 0 013.797-6.597c3.257-3.505 7.695-5.435 12.496-5.435a17 17 0 0111.522 4.48s.181.176.251.242l6.55 5.976-.005-.005 12.257 11.278.867.85a6.44 6.44 0 011.64 6.56l-.055.18a6.463 6.463 0 01-4.316 4.376 8.965 8.965 0 01-1.981.331s-2.953-.027-6.11 1.225c0 0-4.551 1.55-5.084 7.466h10.824s2.884.054 5.211-.802v-.001c4.744-1.565 8.455-5.38 9.85-10.179a15.13 15.13 0 00-3.846-15.35M4.287 77.336c-1.188-.613-2.112-1.469-2.766-2.565-.655-1.097-.984-2.368-.984-3.81v-6.643c0-1.443.329-2.717.984-3.825.654-1.106 1.578-1.962 2.766-2.565 1.19-.602 2.561-.905 4.115-.905 1.531 0 2.887.296 4.068.891 1.178.592 2.096 1.398 2.75 2.417a6.132 6.132 0 01.985 3.394v.06c0 .336-.173.504-.515.504h-3.236a.778.778 0 01-.378-.075c-.092-.048-.136-.103-.136-.162v-.207c0-.91-.323-1.676-.969-2.3-.644-.622-1.5-.932-2.569-.932-1.089 0-1.962.33-2.616.992-.657.664-.983 1.528-.983 2.595v6.878c0 1.068.35 1.934 1.058 2.596.706.663 1.603.993 2.692.993 1.048 0 1.884-.271 2.51-.815.624-.544.938-1.3.938-2.268v-1.305c0-.12-.061-.179-.182-.179H8.612c-.343 0-.514-.168-.514-.502v-2.433c0-.335.171-.504.514-.504h7.078c.342 0 .515.169.515.504v3.765c0 1.504-.324 2.808-.968 3.914a6.342 6.342 0 01-2.739 2.537c-1.178.582-2.544.874-4.096.874-1.554 0-2.924-.306-4.115-.92m25.253-3.617c.685-.692 1.03-1.61 1.03-2.757v-6.523c0-1.147-.339-2.072-1.013-2.774-.677-.7-1.579-1.051-2.708-1.051-1.11 0-2 .35-2.678 1.05-.674.703-1.01 1.628-1.01 2.775v6.523c0 1.146.335 2.065 1.01 2.757.677.692 1.569 1.037 2.678 1.037s2.006-.345 2.691-1.037m-6.849 3.677c-1.2-.633-2.133-1.516-2.797-2.654-.667-1.137-1-2.445-1-3.929v-6.346c0-1.461.333-2.757 1-3.884.664-1.126 1.596-2 2.797-2.623 1.199-.623 2.586-.936 4.158-.936 1.592 0 2.989.313 4.188.936 1.2.622 2.133 1.497 2.8 2.623.664 1.127.996 2.423.996 3.884v6.346c0 1.484-.332 2.799-.997 3.943a6.75 6.75 0 01-2.8 2.654c-1.198.623-2.595.935-4.188.935-1.571 0-2.958-.316-4.157-.95m18.857-5.159h7.773c.12 0 .16-.059.12-.177l-3.931-12.13c-.02-.076-.051-.117-.092-.117s-.07.04-.09.117l-3.903 12.13c-.02.118.02.177.123.177m9.738 5.456l-1.209-3.618c-.04-.077-.092-.117-.153-.117h-9.012c-.06 0-.11.04-.151.117l-1.179 3.618c-.061.22-.202.327-.424.327h-1.452c-.14 0-.242-.039-.301-.118-.061-.079-.072-.189-.031-.327l6.653-19.985c.061-.218.202-.328.424-.328h1.935c.222 0 .363.11.424.328l6.684 19.985c.019.039.03.09.03.148 0 .08-.036.148-.105.207a.392.392 0 01-.257.09H51.71c-.222 0-.363-.108-.424-.327m17.27-20.045v1.098c0 .258-.13.386-.393.386h-5.807c-.1 0-.151.048-.151.148v18.354c0 .258-.13.386-.394.386h-1.36c-.263 0-.393-.128-.393-.386V59.277c0-.099-.051-.148-.151-.148h-5.564c-.264 0-.394-.127-.394-.385v-1.098c0-.255.13-.385.394-.385h13.82c.263 0 .393.13.393.385"/></svg>