<svg width="172" height="69" viewBox="0 0 172 69" xmlns="http://www.w3.org/2000/svg"><path fill="#fbfbfb" fill-rule="evenodd" clip-rule="evenodd" d="M.33 50.555V.48H3.7v46.903h10.908v3.17H.329m122.954.002V.48h3.371v46.903h10.907v3.17h-14.278m-93.967.002c-6.827 0-10.742-4.762-10.742-13.066V.481h3.198v37.076c0 3.014.564 5.394 1.675 7.073 1.266 1.914 3.186 2.844 5.87 2.844 2.682 0 4.602-.93 5.868-2.843 1.111-1.68 1.674-4.06 1.674-7.074V.481h3.133v37.008c0 8.304-3.892 13.066-10.676 13.066m47.165 0V.48h19.831v3.17H79.781v21.145H93.57v3.17H79.78v22.589h-3.299M109.334 3.54c-2.48 0-4.365.797-5.602 2.369-1.281 1.627-1.931 4.121-1.931 7.413v24.392c0 3.291.65 5.786 1.931 7.413 1.237 1.57 3.122 2.368 5.602 2.368 2.518 0 4.435-.799 5.697-2.374 1.305-1.63 1.967-4.122 1.967-7.407V13.322c0-3.286-.662-5.778-1.967-7.408-1.262-1.575-3.179-2.373-5.697-2.373zm0 47.015c-3.458 0-6.135-1.134-7.955-3.371-1.783-2.191-2.687-5.4-2.687-9.539V13.39c0-4.138.904-7.347 2.687-9.538 1.82-2.236 4.497-3.37 7.955-3.37 3.517 0 6.231 1.133 8.068 3.367 1.797 2.185 2.708 5.395 2.708 9.541v24.256c0 4.147-.911 7.357-2.708 9.542-1.836 2.235-4.551 3.368-8.068 3.368zm32.193 0h3.967V.48h-3.967v50.074zM160.895 3.54c-2.48 0-4.365.797-5.602 2.369-1.281 1.627-1.93 4.121-1.93 7.413v24.392c0 3.291.649 5.786 1.93 7.413 1.237 1.57 3.122 2.368 5.602 2.368 2.519 0 4.435-.799 5.697-2.374 1.306-1.63 1.968-4.122 1.968-7.407V13.322c0-3.286-.662-5.778-1.968-7.408-1.262-1.575-3.178-2.373-5.697-2.373zm0 47.015c-3.458 0-6.135-1.134-7.955-3.371-1.783-2.191-2.687-5.4-2.687-9.539V13.39c0-4.138.904-7.347 2.687-9.538 1.821-2.236 4.497-3.37 7.955-3.37 3.517 0 6.232 1.133 8.069 3.367 1.796 2.185 2.707 5.395 2.707 9.541v24.256c0 4.147-.911 7.357-2.707 9.542-1.837 2.235-4.552 3.368-8.069 3.368z"/><path fill="#fbfbfb" fill-rule="evenodd" clip-rule="evenodd" d="M62.416 41.362L49.517 68.835h-3.505l14.65-31.196-3.943-8.374-10.047 21.401h-3.506l11.8-25.125L43.165.48h3.5l10.05 21.335L66.734.481h3.499l-11.765 25.06 3.943 8.373 4.322-9.202h3.5l-6.068 12.924 14.695 31.2h-3.507L62.416 41.361z"/></svg>