<svg width="206" height="43" viewBox="0 0 206 43" xmlns="http://www.w3.org/2000/svg"><path fill="#fbfbfb" fill-rule="evenodd" clip-rule="evenodd" d="M136.696.952c-7.999 0-14.761 5.861-14.761 14.947 0 .17 0 .339.008.508h6.57a12.198 12.198 0 01-.015-.548c0-5.982 4.238-8.683 8.198-8.683 3.92 0 8.16 2.7 8.16 8.683 0 .185-.009.37-.017.548h6.563c.008-.17.008-.338.008-.508 0-9.086-6.754-14.947-14.714-14.947m15.209 18.678h-29.643c-.647 0-1.181.533-1.181 1.186 0 .653.534 1.184 1.181 1.184h10.427a.743.743 0 010 1.484h-6.954c-.423 0-.806.177-1.086.46a1.554 1.554 0 001.086 2.652h6.698a.689.689 0 010 1.379h-2.075a.69.69 0 00-.687.692c0 .355.256.63.583.695h-.081a15.453 15.453 0 006.572 1.442c2.331 0 4.565-.508 6.546-1.442h-.032c.247-.081.455-.243.599-.46.063-.098.119-.21.151-.33a1.116 1.116 0 00-1.054-1.451h-3.377a.565.565 0 01-.566-.565.57.57 0 01.566-.564h10.14a.982.982 0 00.973-.985.986.986 0 00-.973-.992h-6.187c-.04 0-.081 0-.113-.007h-.279a.976.976 0 01-.973-.975c0-.016 0-.025.007-.041a.81.81 0 01.08-.339v-.007a.949.949 0 01.766-.573c.017-.008.041-.008.056-.008.025-.008.04-.008.064-.008.024-.009.04-.009.064-.009h8.702a1.209 1.209 0 000-2.418M25.928 30.195V11.213L18.53 30.195h-5.12l-7.399-18.74v18.74H.013V1.56H8.25l7.799 19.345 7.4-19.345h8.678v28.635h-6.2m11.913 0V1.56h17.958v6.017H44.16v5.453h10.558v5.614H44.16v5.493h11.678v6.058H37.841m32.872-6.018c4.36 0 7.919-2.545 7.919-8.28 0-5.735-3.56-8.32-7.919-8.32h-3.679v16.6h3.679zm-9.998 6.018V1.56h10.278c8.519 0 14.238 5.492 14.238 14.338 0 8.844-5.72 14.297-14.278 14.297H60.715zm50.468 0l-.4-2.909c-1.24 1.818-3.919 3.514-7.959 3.514-7.878 0-14.357-5.856-14.357-14.902 0-9.008 6.759-14.945 14.757-14.945 8.119 0 11.878 4.847 13.118 8.846l-6.079 2.14c-.44-1.777-2.32-5.008-7.039-5.008-3.839 0-8.358 2.585-8.358 8.967 0 5.977 3.92 9.087 8.519 9.087 4.679 0 6.638-3.07 6.998-4.685h-8.518v-5.413h14.437v15.308h-5.119m45.903 0V1.56h6.319v22.535h12.237v6.1h-18.556m33.791-6.018c4.359 0 7.919-2.545 7.919-8.28 0-5.735-3.56-8.32-7.919-8.32h-3.679v16.6h3.679zm-9.998 6.018V1.56h10.278c8.519 0 14.238 5.492 14.238 14.338 0 8.844-5.719 14.297-14.278 14.297h-10.238zM1.609 39.58c.471 0 .778-.277.778-.697 0-.425-.307-.702-.778-.702H.785v1.399h.824zm-.262.683H.785v1.805H.013v-4.57h1.736c.874 0 1.417.612 1.417 1.385 0 .65-.39 1.148-1.021 1.302l1.021 1.883h-.868l-.951-1.805zm12.696 1.805v-4.57h2.796v.722h-2.03v1.212h1.838v.703H14.81v1.211h2.03v.722h-2.796m17.114-3.281c-.044-.284-.28-.703-.887-.703-.46 0-.78.31-.78.657 0 .29.18.51.53.587l.652.136c.798.161 1.226.67 1.226 1.315 0 .708-.569 1.386-1.602 1.386-1.15 0-1.68-.748-1.75-1.406l.716-.206c.043.477.382.916 1.034.916.542 0 .823-.278.823-.632 0-.296-.218-.535-.606-.62l-.639-.135c-.689-.142-1.149-.599-1.149-1.283 0-.766.696-1.398 1.539-1.398 1.065 0 1.48.657 1.583 1.166l-.69.22m15.457 2.643c.766 0 1.519-.549 1.519-1.651 0-1.102-.753-1.65-1.52-1.65-.76 0-1.512.548-1.512 1.65 0 1.102.753 1.65 1.513 1.65zm0-4.03c1.187 0 2.304.884 2.304 2.379 0 1.502-1.117 2.386-2.304 2.386-1.187 0-2.298-.884-2.298-2.386 0-1.495 1.11-2.378 2.298-2.378zm14.979 3.075v-2.978h.76v2.933c0 .645.35 1 .926 1 .58 0 .925-.355.925-1v-2.933h.766v2.978c0 1.103-.74 1.69-1.691 1.69-.946 0-1.686-.587-1.686-1.69m17.122-.895c.472 0 .779-.277.779-.697 0-.425-.307-.702-.779-.702h-.823v1.399h.823zm-.262.683h-.561v1.805h-.772v-4.57h1.735c.875 0 1.417.612 1.417 1.385 0 .65-.388 1.148-1.02 1.302l1.02 1.883h-.867l-.952-1.805zm13.446-.477c0-1.49 1.104-2.385 2.278-2.385 1.15 0 1.832.683 2.037 1.482l-.722.246c-.134-.555-.556-1-1.315-1-.746 0-1.494.548-1.494 1.657 0 1.07.728 1.637 1.5 1.637.76 0 1.194-.49 1.348-1.005l.702.232c-.204.773-.894 1.515-2.05 1.515-1.218 0-2.284-.89-2.284-2.379m16.229 2.282v-4.57h2.795v.722h-2.03v1.212h1.839v.703h-1.839v1.211h2.03v.722h-2.795m17.114-3.281c-.044-.284-.28-.703-.887-.703-.459 0-.779.31-.779.657 0 .29.178.51.531.587l.65.136c.798.161 1.226.67 1.226 1.315 0 .708-.569 1.386-1.603 1.386-1.148 0-1.679-.748-1.749-1.406l.715-.206c.045.477.384.916 1.034.916.543 0 .824-.278.824-.632 0-.296-.217-.535-.606-.62l-.639-.135c-.689-.142-1.148-.599-1.148-1.283 0-.766.695-1.398 1.537-1.398 1.066 0 1.481.657 1.584 1.166l-.69.22m25.077.999c0-1.49 1.103-2.385 2.278-2.385 1.15 0 1.833.683 2.037 1.482l-.722.246c-.134-.555-.555-1-1.315-1-.746 0-1.493.548-1.493 1.657 0 1.07.727 1.637 1.5 1.637.759 0 1.193-.49 1.347-1.005l.701.232c-.204.773-.893 1.515-2.048 1.515-1.219 0-2.285-.89-2.285-2.379m18.2 1.644c.766 0 1.52-.549 1.52-1.651 0-1.102-.754-1.65-1.52-1.65-.759 0-1.512.548-1.512 1.65 0 1.102.753 1.65 1.512 1.65zm0-4.03c1.188 0 2.305.884 2.305 2.379 0 1.502-1.117 2.386-2.305 2.386-1.186 0-2.297-.884-2.297-2.386 0-1.495 1.111-2.378 2.297-2.378zm15.828 2.18c.472 0 .778-.277.778-.697 0-.425-.306-.702-.778-.702h-.824v1.399h.824zm-.262.683h-.562v1.805h-.772v-4.57h1.736c.875 0 1.418.612 1.418 1.385 0 .65-.39 1.148-1.022 1.302l1.022 1.883h-.869l-.951-1.805zm15.315-.663c.485 0 .779-.272.779-.704 0-.438-.294-.715-.779-.715h-.798v1.418h.798zm-.798.682v1.786h-.766v-4.57h1.679c.868 0 1.442.592 1.442 1.393 0 .805-.574 1.391-1.442 1.391h-.913zm4.248.774c.287 0 .523.238.523.528 0 .29-.236.523-.523.523a.517.517 0 01-.517-.523c0-.29.229-.528.517-.528"/></svg>