<svg width="123" height="79" viewBox="0 0 123 79" xmlns="http://www.w3.org/2000/svg"><path fill="#fbfbfb" fill-rule="evenodd" clip-rule="evenodd" d="M8.089 54.43h1.962l4.532 5.965V54.43h2.1v9.687h-1.81L10.19 57.96v6.158H8.089V54.43m13.085 9.688h2.128V54.43h-2.128v9.687zm6.19-4.816v-.027c0-2.754 2.141-5.01 5.071-5.01 1.741 0 2.79.47 3.8 1.329l-1.34 1.619c-.747-.623-1.41-.983-2.53-.983-1.546 0-2.776 1.37-2.776 3.017v.028c0 1.77 1.216 3.071 2.929 3.071.774 0 1.465-.193 2.003-.58V60.38H32.38v-1.84h4.2v4.207c-.995.844-2.362 1.536-4.13 1.536-3.013 0-5.086-2.118-5.086-4.982m13.334-4.871h2.128v3.834h3.924V54.43h2.127v9.687H46.75v-3.889h-3.924v3.889h-2.128V54.43m14.826 1.966H52.58v-1.965h8.014v1.965h-2.943v7.722h-2.127v-7.722m8.773-1.966h2.128v3.834h3.924V54.43h2.128v9.687h-2.128v-3.889h-3.924v3.889h-2.128V54.43m18.127 5.633l-1.285-3.14-1.284 3.14h2.57zm-2.237-5.7h1.96l4.146 9.755h-2.225l-.883-2.173h-4.09l-.884 2.173h-2.17l4.146-9.756zm7.681.068h2.28l2.004 6.56 2.169-6.588h1.824l2.169 6.587 2.003-6.559h2.225l-3.303 9.756h-1.85l-2.184-6.338-2.183 6.338h-1.851l-3.303-9.756m18.322-.001h2.128v4.235l3.924-4.234h2.57l-3.938 4.11 4.117 5.577h-2.555l-2.999-4.124-1.119 1.162v2.962h-2.128V54.43M24.928 74.777v-.02c0-1.92 1.467-3.546 3.53-3.546 1.194 0 1.928.333 2.633.93l-.764.912c-.528-.45-1.047-.735-1.917-.735-1.262 0-2.22 1.107-2.22 2.42v.02c0 1.41.93 2.449 2.328 2.449.645 0 1.233-.206 1.653-.52v-1.283H28.42v-1.048h2.915v2.88a4.365 4.365 0 01-2.856 1.068c-2.143 0-3.551-1.528-3.551-3.527m15.04 0v-.02c0-1.332-.969-2.439-2.328-2.439-1.36 0-2.31 1.087-2.31 2.42v.02c0 1.332.97 2.429 2.33 2.429 1.359 0 2.308-1.078 2.308-2.41zm-5.899 0v-.02c0-1.93 1.487-3.546 3.59-3.546 2.103 0 3.57 1.597 3.57 3.527v.02c0 1.93-1.486 3.546-3.59 3.546-2.102 0-3.57-1.597-3.57-3.527zm10.089-3.448h1.204v5.76h3.6v1.097h-4.804V71.33m8.73 1.096v4.663h1.35c1.438 0 2.377-.97 2.377-2.312v-.02c0-1.342-.939-2.331-2.377-2.331h-1.35zm-1.203-1.097h2.553c2.152 0 3.64 1.479 3.64 3.409v.02c0 1.93-1.488 3.428-3.64 3.428h-2.553V71.33zm13.223 3.448v-.02c0-1.95 1.457-3.546 3.53-3.546 1.262 0 2.026.44 2.681 1.067l-.772.892c-.549-.51-1.136-.852-1.918-.852-1.301 0-2.26 1.077-2.26 2.42v.02c0 1.342.95 2.429 2.26 2.429.84 0 1.38-.333 1.966-.882l.773.784c-.714.745-1.497 1.215-2.778 1.215-1.996 0-3.482-1.558-3.482-3.527m14.394 0v-.02c0-1.332-.969-2.439-2.328-2.439-1.36 0-2.309 1.087-2.309 2.42v.02c0 1.332.969 2.429 2.328 2.429 1.36 0 2.309-1.078 2.309-2.41zm-5.899 0v-.02c0-1.93 1.487-3.546 3.59-3.546 2.103 0 3.57 1.597 3.57 3.527v.02c0 1.93-1.486 3.546-3.589 3.546-2.104 0-3.57-1.597-3.57-3.527zm13.054-.049c.86 0 1.409-.451 1.409-1.146v-.02c0-.735-.529-1.136-1.418-1.136h-1.751v2.302h1.76zm-2.964-3.4h3.052c.861 0 1.535.255 1.976.686.362.372.567.882.567 1.48v.02c0 1.126-.674 1.802-1.623 2.076l1.848 2.596h-1.427l-1.684-2.39h-1.505v2.39h-1.204V71.33zm11.146 3.567c.91 0 1.478-.51 1.478-1.225v-.02c0-.803-.578-1.224-1.478-1.224H93.24v2.469h1.399zm-2.602-3.566h2.7c1.605 0 2.602.91 2.602 2.292v.02c0 1.538-1.233 2.34-2.739 2.34h-1.36v2.206h-1.203v-6.858zm.833-45.202c37.56-6.335 28.25-25.78 28.25-25.78-12.102 15.509-32.047 17.966-44.742 17.727l.377-.016s-5.978.063-7.697-3.077c-3.114-5.684 1.054-8.27 1.054-8.27s-2.288-.367-3.396.09l-.185-.292c-.901-1.422-3.026-1.19-3.026-1.19s-3.055.229-4.911 1.65c-1.628 1.244-1.534 1.908-3.444 7.19-1.23 3.509-7.423 3.888-8.81 3.93-12.729.223-32.446-2.272-44.382-17.742 0 0-9.309 19.445 28.252 25.78 0 0-15.286 1.896-25.993-3.68 0 0-1.098 14.969 30.402 11.504 0 0-7.106 4.048-20.271 2.703 0 0 2.92 12.846 29.054 1.796 0 0-5.084 4.531-13.403 6.268 0 0 7.818 6.823 20.54-4.02 0 0-2.134 2.832-4.243 4.565 0 0 4.21 1.243 8.675-2.81 0 0-1.941 1.008-3.42 1.057 0 0 5.827-6 5.09-10.417 0 0-7.11 6.143-12.749 8.5 0 0 7.287-5.695 10.092-9.674 0 0-12.269 4.916-19.384 6.086 0 0 11.016-5.285 13.979-8.337 0 0-18.098 2.665-29.057.234 0 0 14.305.478 25.845-3.645 0 0-21.91-3.943-30.111-9.001 0 0 13.604 4.77 28.978 4.819 9.593-.003 13.041-3.25 14.234-5.124.482-.93.908-2.043 1.158-2.75h-.006c.19-.54.355-1.019.504-1.45.25-.723.506-1.466.687-1.919.036-.114.083-.222.144-.323l.011-.023.002-.002a1.497 1.497 0 012.771.797c0 .05-.01.097-.014.146l.012-.001a9.98 9.98 0 00.245 2.419c.152.641.383 1.252.646 1.81v-.001l.002.004c.227.482.477.913.718 1.298 1.256 1.802 4.447 4.86 11.71 5.102l.516.01c.144.002.286.005.433.005 15.714.127 29.816-4.817 29.816-4.817-8.201 5.058-30.112 9.001-30.112 9.001 11.54 4.123 25.846 3.645 25.846 3.645-10.96 2.43-29.057-.234-29.057-.234 2.962 3.052 13.978 8.337 13.978 8.337-7.115-1.17-19.383-6.086-19.383-6.086 2.804 3.979 10.092 9.675 10.092 9.675-5.64-2.358-12.75-8.5-12.75-8.5-.737 4.416 5.091 10.416 5.091 10.416-1.48-.049-3.42-1.056-3.42-1.056 4.464 4.052 8.675 2.809 8.675 2.809-2.11-1.733-4.244-4.564-4.244-4.564 12.722 10.842 20.54 4.02 20.54 4.02-8.318-1.738-13.403-6.269-13.403-6.269 26.135 11.05 29.055-1.797 29.055-1.797C95.567 38 88.46 33.952 88.46 33.952c31.5 3.465 30.402-11.504 30.402-11.504-10.707 5.576-25.992 3.68-25.992 3.68"/></svg>