<svg width="104" height="79" viewBox="0 0 104 79" xmlns="http://www.w3.org/2000/svg"><path fill="#fbfbfb" fill-rule="evenodd" clip-rule="evenodd" d="M8.633 53.756c0-1.02-.109-1.677-.325-1.97-.216-.294-.696-.44-1.44-.44-.384 0-.69.032-.918.095a.976.976 0 00-.54.364c-.133.178-.217.427-.253.746-.035.319-.054.72-.054 1.205v18.248c0 .535.019.963.054 1.281.036.32.12.568.253.746a.97.97 0 00.54.364c.228.064.534.095.918.095s.69-.031.918-.095a.946.946 0 00.54-.383c.132-.191.217-.446.253-.765.036-.319.054-.733.054-1.243V53.756zm4.177 18.248c0 1.403-.078 2.524-.234 3.366-.156.842-.456 1.486-.9 1.932-.445.447-1.05.74-1.819.88-.768.14-1.765.21-2.989.21s-2.22-.07-2.989-.21c-.768-.14-1.369-.433-1.8-.88-.433-.446-.727-1.09-.883-1.932-.156-.842-.234-1.963-.234-3.366V53.756c0-1.403.078-2.519.234-3.348.156-.828.45-1.466.882-1.913.432-.446 1.033-.739 1.801-.88.768-.14 1.765-.21 2.989-.21s2.22.07 2.99.21c.767.141 1.373.434 1.817.88.445.447.745 1.085.901 1.913.156.83.234 1.945.234 3.348v18.248zm7.285 5.477h-3.64V54.885h3.39v1.509c.262-.503.66-.912 1.195-1.226.535-.314 1.243-.472 2.123-.472 1.236 0 2.099.327 2.586.981.488.654.732 1.862.732 3.621v5.621h-3.282v-5.168c0-.603-.096-1.018-.286-1.245-.19-.226-.595-.34-1.213-.34-.809 0-1.344.416-1.605 1.246v18.07m15.792-13.904v-3.599c0-.663-.096-1.097-.289-1.301-.192-.204-.6-.306-1.226-.306-.697 0-1.136.102-1.316.306-.18.204-.27.638-.27 1.301v13.169c0 .664.095 1.104.288 1.32.192.218.625.326 1.298.326.625 0 1.034-.12 1.226-.364.193-.242.289-.67.289-1.282v-5.934h3.353v6.317c0 1.072-.072 1.933-.216 2.584-.144.65-.403 1.142-.775 1.474-.373.332-.872.548-1.497.65-.625.102-1.418.153-2.38.153-1.082 0-1.953-.057-2.614-.172-.662-.114-1.185-.344-1.569-.689-.385-.344-.644-.836-.775-1.474-.133-.637-.199-1.48-.199-2.526V59.558c0-1.072.073-1.927.217-2.565.144-.638.402-1.13.775-1.474.373-.344.895-.567 1.569-.67.673-.101 1.538-.153 2.596-.153 1.01 0 1.833.064 2.47.192.637.128 1.136.364 1.497.708.36.345.6.836.721 1.474.12.638.18 1.468.18 2.488v4.02h-3.353m10.92 11.599c.529 0 .913-.006 1.154-.02.24-.012.397-.031.469-.057v-7.503a1.484 1.484 0 00-.613-.191 9.836 9.836 0 00-.974-.039c-.698 0-1.124.141-1.28.421-.157.282-.235.818-.235 1.608v3.599c0 .434.012.791.037 1.072.023.28.084.504.18.67a.752.752 0 00.45.344c.205.064.475.096.812.096zm-.288 3.215c-.914 0-1.666-.05-2.255-.153-.589-.102-1.052-.306-1.388-.612-.337-.306-.571-.752-.703-1.34-.133-.587-.198-1.365-.198-2.335v-5.55c0-1.379.246-2.387.739-3.025.493-.638 1.34-.957 2.543-.957h.685c.817 0 1.394.032 1.73.096.337.064.59.147.758.248v-4.746c0-.843-.102-1.385-.307-1.627-.204-.243-.643-.364-1.316-.364-.649 0-1.058.14-1.226.42-.169.282-.253.805-.253 1.57v2.259h-3.353v-2.718c0-1.072.066-1.927.198-2.565.132-.638.379-1.13.74-1.474.36-.344.852-.567 1.478-.67.625-.101 1.43-.153 2.416-.153 1.082 0 1.96.052 2.633.153.672.103 1.196.326 1.569.67.372.345.63.837.775 1.474.144.638.216 1.493.216 2.565V78.01c-.433.127-1.094.223-1.983.287-.89.063-2.056.096-3.498.096zm18.726-21.238V54.48c0-.495-.018-.897-.055-1.207-.037-.309-.123-.544-.257-.705a1.052 1.052 0 00-.55-.334 3.607 3.607 0 00-.899-.093c-.391 0-.703.031-.935.093a1 1 0 00-.55.353c-.135.173-.22.414-.257.724-.037.31-.055.7-.055 1.17v17.71c0 .496.018.898.055 1.207.036.31.122.551.257.724.134.174.317.298.55.372.232.074.544.111.935.111.49 0 .886-.012 1.192-.037.306-.024.532-.061.679-.111V60.978h3.962v17.043c-.343.074-.997.154-1.963.241-.966.087-2.256.13-3.87.13-1.247 0-2.262-.08-3.044-.24-.783-.162-1.394-.47-1.834-.93-.44-.457-.74-1.088-.899-1.893-.16-.804-.239-1.85-.239-3.137V54.48c0-1.337.086-2.413.257-3.23.171-.817.483-1.442.936-1.875.452-.433 1.07-.718 1.852-.854s1.773-.205 2.971-.205c1.174 0 2.14.07 2.898.205.758.136 1.357.42 1.797.854.44.433.74 1.052.899 1.856.159.805.239 1.888.239 3.25v2.673h-4.072m14.272 2.825c0-.663-.094-1.097-.28-1.301-.188-.204-.608-.307-1.262-.307-.655 0-1.075.11-1.262.326-.188.217-.28.645-.28 1.282v13.169c0 .664.092 1.104.28 1.32.187.218.607.326 1.262.326.677 0 1.104-.12 1.279-.363.175-.243.263-.67.263-1.283V59.979zm3.47 13.552c0 1.072-.07 1.927-.21 2.565-.14.638-.392 1.129-.754 1.474-.362.344-.87.567-1.525.67-.654.101-1.496.153-2.523.153-1.03 0-1.87-.052-2.524-.154-.655-.102-1.169-.325-1.543-.67-.374-.344-.625-.835-.753-1.473-.129-.638-.193-1.493-.193-2.565V59.558c0-1.072.064-1.926.193-2.565.128-.637.38-1.129.753-1.474.374-.344.888-.567 1.543-.67.654-.101 1.495-.153 2.524-.153 1.028 0 1.869.052 2.523.154.654.102 1.163.325 1.525.67.362.344.614.836.754 1.473.14.639.21 1.493.21 2.565v13.973zm2.735 3.95h3.645V48.316h-3.645v29.165zm13.81-17.475c-.303-.781-.83-1.173-1.577-1.173-.608 0-1.005.127-1.192.379-.187.252-.28.756-.28 1.513v12.333c0 .757.093 1.262.28 1.513.187.253.584.379 1.192.379.748 0 1.274-.391 1.578-1.173v-13.77zm-6.52-.038c0-.882.047-1.62.14-2.213.094-.592.27-1.065.527-1.419a2.102 2.102 0 011.034-.756c.432-.151.999-.227 1.7-.227.794 0 1.43.139 1.91.416.479.278.847.669 1.104 1.173v-8.626h3.611v29.887h-3.33v-1.626c-.328.656-.742 1.122-1.245 1.4-.502.276-1.174.415-2.015.415-.701 0-1.274-.07-1.718-.208a1.991 1.991 0 01-1.051-.737c-.258-.353-.433-.826-.526-1.42-.094-.591-.14-1.342-.14-2.25V59.968zm-7.925-22.113l-5.867-4.737c1.14-.632 2.865-.37 4.25.75 1.386 1.118 2.001 2.745 1.617 3.987zm4.08-7.46c-1.353-2.913-3.951-5.81-3.951-5.81a41.225 41.225 0 00-22.694-13.801l-.13-.029a.523.523 0 01-.025-.057l-2.06-5.409L52.455.013c.797 2.925.691 5.838-1.177 8.6a17.61 17.61 0 01-1.006 1.323c-17.116 1.34-31.285 13.099-36.138 28.914-.245.918-.411 1.56-.411 2.201h6.026l16.353-15.673 16.482 7.194 7.307-4.086L74.6 40.58l4.7-3.402 9.279 7.016.051.012c.345.262.677.447.948.465.076.005.712-.246 1.03-.986.419-.972.537-2.583.572-3.522.182-4.76-2.012-9.768-2.012-9.768z"/><path fill="#fbfbfb" fill-rule="evenodd" clip-rule="evenodd" d="M26.053 41.025L38.33 28.377l-2.106-1.022-13.388 13.67h3.218m42.725 3.645l4.183-3.258-10.72-8.59c.018.093.126.34.184.556a10.63 10.63 0 01.467 3.175c0 1.423-.281 2.781-.788 4.028-.513 1.495-1.517 2.958-2.814 4.09h9.488"/></svg>