<svg
  width="22"
  height="22"
  viewBox="0 0 22 22"
  xmlns="http://www.w3.org/2000/svg"
>
  <path
    d="M18.191 5.128a1.32 1.32 0 1 1-2.64 0 1.32 1.32 0 0 1 2.64 0"
  />
  <path
    d="M11 0C8.013 0 7.637.013 6.465.066c-1.17.053-1.97.239-2.67.512a5.378 5.378 0 0 0-1.949 1.268A5.378 5.378 0 0 0 .578 3.795c-.273.7-.459 1.5-.512 2.67C.013 7.637 0 8.013 0 11s.013 3.363.066 4.535c.053 1.17.239 1.97.512 2.67.28.724.657 1.337 1.268 1.949a5.403 5.403 0 0 0 1.949 1.27c.7.271 1.5.457 2.67.51C7.637 21.987 8.013 22 11 22s3.363-.013 4.535-.066c1.17-.053 1.97-.239 2.67-.51a5.39 5.39 0 0 0 1.949-1.27 5.39 5.39 0 0 0 1.27-1.949c.271-.7.457-1.5.51-2.67.053-1.172.066-1.548.066-4.535s-.013-3.363-.066-4.535c-.053-1.17-.239-1.97-.51-2.67a5.403 5.403 0 0 0-1.27-1.949A5.365 5.365 0 0 0 18.205.578c-.7-.273-1.5-.459-2.67-.512C14.363.013 13.987 0 11 0m0 1.982c2.937 0 3.286.012 4.444.064 1.073.049 1.656.228 2.043.379.514.2.88.438 1.266.823.384.385.623.751.822 1.265.151.387.33.97.379 2.041.052 1.162.063 1.509.063 4.446s-.011 3.286-.063 4.444c-.049 1.073-.228 1.656-.379 2.043-.2.514-.438.88-.822 1.266a3.44 3.44 0 0 1-1.266.822c-.387.151-.97.33-2.043.379-1.158.052-1.507.063-4.444.063-2.937 0-3.284-.011-4.446-.063-1.071-.049-1.654-.228-2.04-.379-.515-.2-.88-.438-1.266-.822a3.425 3.425 0 0 1-.823-1.266c-.151-.387-.33-.97-.379-2.043-.052-1.158-.064-1.507-.064-4.444 0-2.937.012-3.284.064-4.446.049-1.071.228-1.654.379-2.04.2-.515.438-.88.823-1.266a3.407 3.407 0 0 1 1.265-.823c.387-.151.97-.33 2.041-.379 1.162-.052 1.509-.064 4.446-.064"
  />
  <path
    d="M11 14.666a3.666 3.666 0 1 1 0-7.335 3.666 3.666 0 0 1 0 7.335m0-9.315a5.65 5.65 0 0 0 0 11.298 5.65 5.65 0 0 0 0-11.298"
  />
</svg>
